<?xml version="1.0" standalone="no"?>
<!DOCTYPE svg PUBLIC "-//W3C//DTD SVG 20010904//EN"
 "http://www.w3.org/TR/2001/REC-SVG-20010904/DTD/svg10.dtd">
<svg version="1.0" xmlns="http://www.w3.org/2000/svg"
 width="1120.000000pt" height="535.000000pt" viewBox="0 0 1120.000000 535.000000"
 preserveAspectRatio="xMidYMid meet">

<g transform="translate(0.000000,535.000000) scale(0.100000,-0.100000)"
fill="#000000" stroke="none">
<path d="M0 4821 l0 -529 31 -7 c17 -4 28 -9 25 -12 -3 -3 16 -19 42 -37 71
-47 66 -106 -8 -106 -37 0 -92 -20 -88 -32 2 -6 35 -20 73 -33 63 -21 67 -24
43 -30 -15 -4 -48 -5 -73 -3 l-45 3 0 -1142 0 -1143 38 -1 37 -2 -35 -6 -35
-6 -3 -698 c-2 -603 0 -697 12 -697 10 0 16 13 18 37 4 52 28 56 28 4 0 -40 1
-41 35 -41 34 0 37 3 62 60 31 73 42 74 13 1 -11 -28 -20 -54 -20 -56 0 -13
34 -3 46 13 13 16 13 16 14 0 0 -22 38 -24 46 -3 8 19 24 19 24 0 0 -13 16
-15 90 -14 70 1 90 4 90 15 0 18 34 18 49 0 12 -15 61 -19 61 -5 0 5 -3 9 -8
9 -4 0 -12 8 -19 19 -10 16 -6 22 40 47 67 38 74 40 60 22 -7 -8 -31 -23 -53
-33 -22 -10 -40 -22 -40 -26 0 -4 13 -17 30 -29 26 -18 41 -20 132 -18 73 2
103 7 104 16 1 6 2 32 3 57 l1 45 91 0 91 0 -4 -58 -3 -57 180 0 180 0 10 54
c8 42 14 55 30 57 35 6 50 -5 75 -51 14 -25 28 -45 32 -45 4 0 8 21 10 47 2
36 7 49 21 51 14 3 17 -5 17 -52 0 -41 4 -56 14 -56 13 0 26 41 26 86 0 17 6
24 20 24 18 0 20 -7 20 -55 l0 -55 78 1 c72 1 74 2 30 9 -61 11 -68 16 -68 50
0 38 23 50 99 50 54 0 61 -2 61 -20 0 -18 -7 -20 -61 -20 -37 0 -58 -4 -54
-10 3 -6 22 -10 41 -10 42 0 74 -15 74 -35 0 -12 16 -15 78 -14 75 1 76 2 26
9 -64 9 -74 15 -74 43 0 40 16 50 79 55 70 5 93 -1 85 -23 -5 -11 -21 -15 -61
-15 -33 0 -52 -4 -48 -10 3 -6 22 -10 41 -10 42 0 74 -15 74 -35 0 -31 21 -13
47 40 25 50 30 55 61 55 31 0 35 -4 57 -55 14 -32 31 -55 40 -55 12 0 15 13
15 55 l0 55 35 0 c32 0 38 -5 68 -52 32 -52 32 -53 35 -23 5 60 12 75 33 75
20 0 21 -4 14 -55 l-6 -55 185 0 186 0 0 55 0 55 93 0 92 0 -3 -55 -4 -55 46
0 c34 0 46 4 46 15 0 18 9 19 47 5 25 -9 26 -8 11 4 -34 26 -19 42 33 37 10
-1 21 10 28 29 12 35 31 32 31 -6 0 -18 5 -24 21 -24 11 0 18 4 15 9 -3 5 0
11 8 14 18 7 10 -27 -10 -44 -29 -24 -16 -39 35 -39 52 0 61 10 61 68 0 19 5
22 40 22 29 0 40 -4 40 -15 0 -9 -9 -15 -25 -15 -14 0 -25 -4 -25 -10 0 -5 7
-10 15 -10 8 0 15 -4 15 -10 0 -5 -9 -10 -20 -10 -11 0 -20 -4 -20 -10 0 -5
13 -10 29 -10 24 0 31 5 36 28 5 25 11 29 40 30 32 1 35 -1 35 -28 0 -17 4
-30 9 -30 11 0 21 25 21 55 0 29 16 41 35 25 12 -10 15 -10 15 0 0 8 3 10 7 6
5 -4 0 -13 -9 -20 -19 -14 -35 -66 -20 -66 5 0 13 11 16 25 4 15 16 27 31 31
31 8 45 -2 45 -32 0 -13 5 -24 11 -24 6 0 9 14 6 35 -3 19 0 38 6 42 6 3 7 1
3 -5 -4 -7 -3 -12 2 -12 5 0 14 -10 20 -22 8 -18 11 -19 11 -6 1 20 17 32 32
23 7 -5 5 -15 -6 -31 -15 -24 -15 -24 24 -24 36 0 40 3 46 30 4 16 4 40 0 52
-3 13 -3 19 2 13 4 -5 17 -10 28 -9 41 1 56 -15 49 -52 -4 -22 -2 -34 5 -34 6
0 11 8 11 19 0 27 26 44 55 37 29 -7 33 -30 8 -45 -15 -9 -12 -10 17 -11 23 0
30 3 21 9 -21 13 -4 53 22 49 25 -4 35 -28 11 -28 -16 0 -16 -1 2 -15 27 -20
32 -19 36 13 2 16 8 26 17 24 7 -1 18 3 25 10 6 7 10 12 9 9 -1 -2 5 -10 13
-19 9 -8 13 -23 11 -33 -3 -11 -2 -19 3 -19 4 0 11 11 14 25 8 29 49 44 72 24
8 -7 13 -21 11 -31 -3 -10 -2 -18 3 -18 15 0 22 53 8 62 -9 7 -7 8 7 3 11 -4
31 -8 45 -9 20 -1 25 -6 25 -29 -1 -22 3 -27 25 -27 18 0 21 3 12 9 -22 14
-10 46 17 46 14 0 26 -6 29 -12 2 -7 -4 -13 -13 -13 -15 0 -15 -2 -1 -15 20
-20 23 -19 35 15 7 21 7 30 -1 30 -7 0 -6 5 2 15 23 28 33 17 27 -30 -4 -26
-3 -45 3 -45 10 0 23 38 19 56 -4 21 2 34 16 34 9 0 15 -10 16 -22 0 -13 3
-17 6 -11 7 19 33 -10 33 -36 0 -39 19 -21 26 24 4 28 11 45 20 45 16 0 17
-13 5 -58 -8 -25 -7 -32 5 -32 8 0 14 10 14 25 0 32 30 34 31 3 l0 -23 9 22
c5 12 18 27 29 33 24 13 26 3 6 -24 -22 -29 -19 -36 15 -36 30 0 30 1 30 55 0
30 5 55 10 55 6 0 10 -25 10 -55 0 -48 2 -55 20 -55 16 0 20 7 20 30 0 17 5
30 10 30 6 0 10 -11 10 -25 0 -16 6 -25 15 -25 9 0 15 9 15 24 0 14 5 28 10
31 6 4 10 -8 10 -29 0 -20 5 -36 10 -36 6 0 10 14 10 30 0 27 3 30 33 29 23
-1 26 -3 10 -6 -30 -6 -30 -23 0 -23 21 -1 22 -1 3 -15 -19 -15 -19 -15 1 -15
16 0 22 7 25 27 2 23 8 28 33 30 l30 3 -25 -12 -25 -11 25 -7 25 -7 -25 -11
-25 -11 27 0 c20 -1 28 6 37 29 5 16 14 30 19 30 5 0 15 -13 22 -30 17 -41 57
-43 62 -3 2 22 9 29 31 31 15 2 27 -1 27 -6 0 -5 -8 -9 -17 -8 -27 2 -23 -38
4 -42 17 -3 22 3 25 24 2 15 9 29 16 32 7 2 10 -2 6 -12 -4 -11 -1 -16 10 -16
9 0 16 7 16 15 0 8 5 15 10 15 6 0 10 -13 10 -30 0 -38 14 -38 30 0 16 38 28
38 41 0 6 -16 15 -30 20 -30 5 0 9 14 9 30 0 33 14 39 30 13 10 -17 10 -17 20
0 16 26 30 20 30 -13 0 -16 5 -30 10 -30 6 0 10 14 10 31 0 27 3 30 27 27 36
-4 43 -35 11 -47 -23 -10 -23 -10 5 -10 24 -1 27 3 27 29 0 17 5 30 10 30 10
0 14 -13 11 -37 -1 -6 3 -14 9 -18 6 -4 10 4 10 19 0 14 8 30 18 35 27 14 52
-5 52 -40 0 -18 4 -28 10 -24 6 3 10 19 10 36 0 35 12 37 33 6 l16 -22 0 23
c1 36 21 25 21 -12 0 -30 2 -33 25 -28 l24 4 -21 17 c-12 10 -18 23 -14 29 9
14 46 16 46 2 0 -5 -8 -6 -17 -3 -11 4 -5 -7 14 -25 37 -38 63 -34 63 9 0 16
5 29 10 29 6 0 10 -14 10 -31 0 -26 3 -30 23 -27 16 2 22 10 22 28 0 21 5 25
30 27 l30 3 -25 -12 c-21 -9 -22 -12 -7 -15 20 -5 23 -19 5 -26 -7 -3 -2 -6
10 -6 18 -1 27 7 35 29 15 39 23 38 41 -5 19 -44 31 -45 31 -2 0 28 4 32 28
35 15 2 27 -1 27 -6 0 -5 -8 -9 -17 -8 -21 1 -25 -35 -5 -42 7 -2 10 2 6 12
-4 11 -1 16 10 16 9 0 16 -8 16 -20 0 -11 4 -20 9 -20 5 0 7 16 4 35 -3 20 0
35 6 35 5 0 11 -12 13 -27 4 -39 28 -42 28 -4 0 17 5 31 10 31 6 0 10 -16 10
-35 0 -19 5 -35 10 -35 6 0 10 16 10 35 0 32 3 35 28 34 16 -1 20 -3 10 -6
-21 -5 -23 -19 -5 -26 9 -4 9 -8 -2 -15 -10 -8 -6 -12 19 -17 17 -4 36 -3 40
1 5 5 11 34 13 64 l3 55 2 -62 2 -61 33 3 c17 1 49 6 70 10 36 7 37 8 37 51 0
37 3 44 20 44 50 0 77 -28 71 -76 -2 -14 26 -22 102 -29 l57 -6 0 51 0 50 39
0 c44 0 64 -18 59 -52 -2 -18 -11 -24 -38 -28 -41 -6 -30 -17 18 -18 32 -1 32
0 32 49 0 37 4 49 15 49 16 0 18 -7 15 -58 -2 -40 15 -42 24 -2 5 28 9 30 50
30 40 0 45 -2 44 -23 -2 -38 2 -47 17 -47 12 0 13 4 5 19 -5 11 -10 27 -10 35
0 26 25 18 36 -11 l11 -28 13 27 c7 16 19 28 27 28 17 0 17 -15 -3 -45 l-16
-25 51 0 c56 0 68 15 21 25 -25 5 -30 12 -30 35 0 29 15 40 56 40 30 0 32 -17
2 -22 -33 -5 -32 -25 1 -31 20 -4 31 -13 34 -29 2 -13 5 -3 6 21 1 42 2 43 28
36 33 -8 42 -16 26 -22 -19 -7 -16 -53 2 -53 9 0 15 9 15 25 0 29 29 48 68 43
22 -2 28 -9 33 -38 6 -35 6 -35 8 9 1 40 3 43 24 37 12 -3 25 -6 30 -6 14 0 7
-20 -8 -20 -8 0 -15 -4 -15 -9 0 -21 13 -41 26 -41 10 0 14 14 14 50 0 38 4
50 15 50 11 0 15 -12 15 -44 0 -25 4 -47 9 -50 5 -4 7 2 4 12 -2 10 5 26 16
36 29 27 72 10 88 -35 l12 -34 0 43 c1 33 5 42 19 41 42 -2 67 -16 72 -39 5
-22 12 -25 63 -28 31 -2 74 2 97 8 38 10 40 13 40 50 0 35 3 40 23 40 36 0 67
-27 67 -59 0 -24 5 -30 31 -35 17 -3 45 -6 61 -6 28 0 29 1 26 53 l-3 52 87 3
87 3 3 -58 3 -58 196 -3 196 -2 -4 27 c-3 19 3 38 17 56 18 22 29 27 63 26
l42 -2 -40 -6 c-22 -3 -35 -9 -29 -13 6 -4 26 -3 45 2 29 9 36 7 52 -11 9 -12
17 -34 17 -50 0 -17 5 -29 13 -29 9 0 13 15 13 47 -1 37 3 48 17 51 14 3 17
-4 17 -47 0 -44 3 -51 19 -51 17 0 20 8 23 47 4 65 24 66 36 1 7 -41 10 -46
11 -20 1 31 3 32 41 32 35 0 42 -4 54 -32 l14 -33 2 35 c1 19 2 43 1 53 -1 9
4 17 12 17 10 0 15 -12 15 -41 1 -23 6 -47 13 -53 9 -8 10 -7 6 7 -7 20 9 68
26 79 7 4 27 8 45 8 24 0 32 -4 32 -18 0 -13 -8 -18 -26 -17 -30 0 -50 -24
-41 -49 4 -11 19 -16 47 -16 38 0 40 2 40 30 0 27 3 30 30 30 17 0 30 -4 30
-10 0 -5 -6 -10 -14 -10 -9 0 -12 -7 -9 -19 7 -27 33 -36 33 -12 0 38 12 51
44 51 37 0 56 -15 57 -45 0 -16 2 -15 11 8 6 16 20 30 34 33 13 3 24 12 24 19
0 20 21 30 31 14 5 -8 10 -34 11 -59 1 -44 1 -44 5 -7 3 29 9 37 24 37 15 0
19 -7 19 -35 0 -19 5 -35 11 -35 7 0 9 11 5 30 -6 33 8 80 24 80 5 0 10 -9 10
-20 0 -11 5 -20 10 -20 6 0 9 -15 8 -33 l-3 -32 193 -5 c124 -3 196 -1 200 5
4 6 5 34 3 63 l-3 53 89 -3 88 -3 3 -58 3 -59 114 4 c62 1 117 6 120 10 4 4 5
14 2 23 -4 8 -6 18 -6 21 0 4 -5 10 -12 15 -10 6 -10 11 0 23 34 41 124 -5
124 -62 0 -31 2 -32 44 -32 l45 0 -4 38 -3 37 83 2 c73 1 84 -1 97 -20 8 -12
15 -32 15 -44 0 -13 6 -23 14 -23 9 0 12 8 8 25 -7 40 22 64 74 63 l44 -1 0
-42 0 -43 45 0 c25 1 48 5 51 10 3 4 -6 8 -19 8 -33 0 -54 26 -40 48 12 20 74
23 81 5 2 -9 -7 -13 -28 -13 -38 0 -32 -15 10 -23 18 -4 30 -13 30 -22 0 -8 4
-15 9 -15 6 0 10 252 11 663 l0 662 -59 24 c-32 12 -74 27 -92 31 l-34 8 30 1
c27 0 92 -11 138 -25 16 -5 17 54 17 1152 l0 1157 -67 -6 c-38 -4 -93 -3 -123
2 -30 5 -50 9 -43 10 7 0 38 12 70 26 l57 26 -28 14 c-16 8 -34 15 -42 15 -7
0 -25 5 -39 12 -37 17 -32 47 17 90 41 36 42 37 18 39 -33 3 94 20 143 20 l37
-1 0 560 0 560 -5600 0 -5600 0 0 -529z m4945 -274 c16 -33 26 -43 49 -45 17
-2 30 -11 33 -22 4 -15 12 -18 39 -15 23 3 38 0 46 -11 7 -9 27 -30 44 -47 17
-18 34 -39 37 -49 3 -9 22 -22 42 -29 20 -7 34 -18 31 -25 -6 -16 74 -38 116
-32 20 3 38 0 46 -9 12 -11 8 -16 -22 -28 -19 -8 -42 -15 -50 -15 -12 0 -13
-5 -7 -22 6 -15 21 -26 47 -32 51 -12 84 -47 84 -90 0 -26 -9 -41 -40 -68 -22
-20 -45 -38 -52 -40 -7 -3 6 -13 30 -23 23 -10 42 -22 42 -27 0 -4 -29 -8 -65
-8 -35 0 -77 -6 -92 -12 -29 -14 -103 -85 -103 -100 0 -5 -14 -14 -30 -20 -17
-5 -37 -23 -46 -39 -15 -29 -37 -36 -64 -20 -10 7 -18 4 -27 -8 -7 -10 -26
-21 -43 -24 -17 -4 -42 -18 -55 -33 l-24 -26 -27 21 c-15 12 -33 21 -40 21 -7
0 -21 10 -31 23 -11 14 -26 21 -41 19 -36 -5 -132 28 -132 46 0 8 -32 45 -70
82 -86 82 -73 80 -424 80 l-261 0 -34 -30 c-18 -17 -39 -30 -45 -30 -7 0 -29
-18 -50 -39 -21 -21 -51 -41 -66 -44 -15 -4 -35 -13 -43 -22 -9 -8 -40 -22
-69 -31 -29 -9 -60 -19 -69 -24 -8 -4 -27 -6 -42 -3 -24 5 -27 2 -27 -23 0
-16 -9 -40 -19 -53 l-18 -23 -21 30 c-12 16 -22 34 -22 40 0 14 -57 35 -75 29
-8 -4 -17 -2 -20 3 -4 6 -16 10 -29 10 -12 0 -26 4 -32 9 -17 17 -159 64 -188
63 -16 -1 -40 7 -55 17 -22 16 -43 18 -133 16 -99 -2 -108 0 -134 22 -15 12
-33 23 -41 23 -7 0 -13 4 -13 9 0 4 -26 11 -57 15 -45 5 -63 13 -80 33 -13 14
-23 22 -23 17 0 -5 -4 -3 -9 5 -8 12 -66 16 -308 21 -309 6 -357 4 -347 -12 3
-5 -2 -9 -12 -8 -31 4 -46 1 -40 -8 2 -4 -13 -6 -34 -4 -21 2 -41 -1 -44 -7
-12 -19 -43 -12 -60 14 -12 18 -25 25 -50 25 -18 0 -57 5 -86 10 -29 6 -161
15 -294 21 -132 5 -242 12 -245 14 -2 3 2 11 8 19 16 19 10 68 -8 74 -8 3 -11
0 -7 -7 4 -6 2 -11 -5 -11 -7 0 -9 -10 -7 -25 9 -44 -9 -37 -25 10 -11 30 -12
47 -5 51 6 4 15 0 20 -7 7 -10 8 -9 3 6 -4 11 -10 40 -13 64 -4 40 -3 43 16
37 22 -7 39 8 22 19 -6 4 7 16 29 27 23 11 41 24 41 28 0 4 17 10 37 13 27 5
42 2 55 -10 10 -9 26 -13 38 -10 20 5 74 -16 85 -34 4 -5 37 -9 76 -9 63 0
104 11 120 33 8 11 46 33 82 48 26 11 37 29 17 29 -5 0 -10 5 -10 11 0 6 5 7
13 2 33 -20 70 -11 115 30 l22 20 0 -22 c0 -38 30 -58 100 -66 36 -4 73 -14
82 -22 9 -8 36 -15 61 -15 28 0 47 -5 51 -13 2 -7 27 -20 55 -30 28 -9 53 -21
56 -26 4 -5 40 -9 82 -9 77 0 141 20 185 58 15 12 20 13 34 1 9 -8 33 -12 57
-10 34 2 55 14 108 57 36 30 71 54 78 54 6 0 31 9 56 21 33 16 45 27 47 47 4
36 22 38 35 3 9 -24 21 -33 64 -45 50 -15 54 -15 74 4 25 24 43 26 51 5 6 -15
34 -21 34 -7 0 10 63 46 77 43 7 -1 23 5 35 12 13 8 45 17 71 21 53 6 107 46
107 78 0 27 29 21 60 -12 31 -33 70 -39 90 -15 17 21 37 19 50 -5 12 -22 73
-29 85 -9 5 7 12 6 23 -4 10 -8 32 -18 50 -22 41 -8 92 -51 92 -76 0 -22 37
-62 50 -54 4 3 10 -1 13 -7 3 -8 7 -6 12 7 25 70 28 75 40 65 6 -5 15 -7 18
-4 4 4 11 -5 16 -20 10 -25 22 -30 69 -26 12 1 22 -3 22 -8 0 -5 10 -13 23
-18 16 -6 6 -9 -40 -11 -55 -3 -63 -7 -63 -23 0 -17 7 -20 53 -20 88 0 127
-10 127 -32 0 -10 -10 -23 -22 -28 -19 -7 -16 -9 20 -9 23 -1 42 4 42 9 0 6
12 5 28 -4 15 -8 37 -14 47 -13 12 1 19 -3 17 -11 -2 -10 5 -12 25 -8 77 14
174 18 188 6 18 -15 70 3 79 26 3 9 1 12 -4 9 -6 -3 -10 3 -10 14 0 11 -4 23
-10 26 -14 9 -12 70 4 109 23 55 87 78 208 75 66 -2 102 1 110 9 7 7 18 12 25
12 21 0 80 69 87 102 8 38 20 30 51 -35z m2868 2 c71 -12 127 -27 133 -35 6
-8 25 -19 43 -25 17 -6 31 -15 31 -20 0 -5 9 -9 20 -9 11 0 24 -9 28 -19 4
-11 10 -20 15 -20 23 1 73 -15 79 -25 4 -6 8 6 8 27 l0 38 78 -40 c42 -22 89
-42 105 -45 23 -6 27 -3 27 16 0 57 22 88 33 48 3 -11 11 -19 19 -18 8 2 20
-18 31 -53 13 -39 26 -60 47 -72 40 -24 50 -21 50 12 0 32 24 37 41 10 7 -12
9 -12 9 0 0 8 3 11 8 7 4 -4 6 -11 5 -14 -4 -19 25 -32 73 -32 29 0 56 -5 59
-10 4 -6 16 -8 28 -4 21 6 21 5 -1 -11 -13 -10 -46 -20 -74 -24 l-50 -6 31
-12 c17 -6 31 -7 31 -2 0 18 55 8 99 -16 43 -25 47 -25 250 -24 l206 1 35 29
c19 17 40 34 47 39 7 6 23 10 36 10 13 0 32 9 42 20 23 25 37 25 100 1 73 -28
109 -48 130 -71 13 -14 32 -20 69 -22 50 -1 50 -2 9 -5 -35 -3 -43 -8 -43 -24
0 -20 19 -24 55 -10 23 9 44 -12 45 -45 0 -30 -20 -44 -69 -46 -22 -1 -41 -6
-41 -12 0 -6 -14 -25 -32 -41 -28 -26 -29 -30 -12 -33 10 -1 49 3 85 11 44 9
86 11 129 6 35 -4 73 -4 84 0 14 6 27 3 39 -9 17 -16 12 -17 -80 -24 -54 -3
-161 -6 -238 -7 -100 0 -146 -4 -161 -14 -17 -11 -36 -12 -86 -5 -84 12 -96
17 -113 49 -31 56 -31 56 -59 25 l-26 -29 7 34 6 34 -34 -7 c-19 -3 -40 -6
-46 -6 -44 0 -73 4 -73 9 0 13 -97 4 -127 -11 -17 -8 -43 -13 -57 -11 -15 3
-26 1 -26 -6 0 -6 9 -11 21 -11 11 0 18 -4 14 -9 -3 -6 47 -9 127 -8 138 1
268 -10 268 -23 0 -11 -119 -18 -405 -25 -239 -6 -322 -14 -334 -33 -3 -5 -25
-13 -48 -17 -23 -3 -47 -13 -54 -21 -22 -27 -74 -42 -161 -48 -88 -5 -125 -17
-184 -62 -17 -13 -36 -24 -41 -24 -6 0 -16 -7 -23 -15 -7 -8 -22 -15 -34 -15
-12 0 -38 -14 -59 -31 -25 -21 -43 -28 -57 -24 -14 4 -27 -2 -44 -20 -21 -23
-27 -24 -44 -14 -18 11 -25 8 -56 -19 -43 -37 -52 -39 -66 -12 -9 16 -21 20
-68 20 -58 0 -111 16 -214 64 -31 14 -61 26 -67 26 -6 0 -18 11 -27 25 -9 14
-21 25 -28 25 -6 0 -26 13 -45 29 -19 17 -38 28 -42 25 -5 -2 -13 5 -19 17 -7
11 -27 27 -45 35 -19 7 -36 18 -40 24 -3 5 -25 10 -49 10 -23 0 -46 4 -51 9
-6 5 -31 12 -57 15 -46 4 -48 4 -49 -22 l-1 -27 -7 25 c-5 19 -14 25 -36 26
-44 2 -85 -7 -79 -17 3 -5 -6 -9 -19 -9 -13 0 -39 -13 -57 -30 -20 -18 -45
-30 -61 -30 -14 0 -32 -7 -39 -15 -7 -8 -22 -15 -33 -15 -11 0 -29 -7 -39 -17
-11 -9 -18 -11 -18 -5 0 7 -11 12 -23 12 -13 0 -32 9 -42 20 -10 11 -30 20
-44 20 -15 0 -39 13 -61 34 -65 61 -91 66 -378 66 -170 0 -252 4 -242 10 40
26 126 41 233 40 62 0 120 1 130 2 21 2 23 18 1 18 -8 0 -13 4 -10 9 4 5 -5 8
-19 6 -14 -1 -25 3 -25 9 0 7 -3 8 -8 1 -9 -13 -29 -12 -66 3 -16 7 -43 10
-60 7 -17 -4 -44 -2 -59 4 -20 8 -40 7 -71 -1 -38 -10 -48 -9 -70 5 -17 11
-26 27 -26 43 0 33 17 64 35 64 8 0 15 4 15 9 0 5 60 11 133 14 159 5 290 14
336 25 44 10 53 32 14 33 -15 1 -32 2 -38 4 -5 1 -31 3 -57 3 -35 2 -46 5 -42
15 6 18 11 18 129 22 76 2 100 6 101 16 2 62 17 128 30 133 8 3 14 0 14 -7 0
-9 3 -8 9 1 6 10 12 5 21 -18 7 -17 17 -33 21 -36 17 -10 77 36 89 69 31 84
31 84 40 60 5 -12 18 -24 29 -28 12 -3 21 -15 21 -25 0 -32 12 -50 41 -66 28
-14 29 -14 29 12 0 15 10 35 22 45 26 23 32 24 24 3 -4 -12 -2 -15 9 -10 9 3
15 0 15 -8 0 -18 38 -33 116 -48 68 -12 104 -39 104 -79 0 -10 9 -23 20 -29
11 -6 20 -7 20 -2 0 9 62 34 77 31 24 -6 43 15 43 46 0 87 54 131 172 141 63
6 77 10 81 25 4 15 15 19 46 19 29 0 41 4 41 14 0 14 14 19 98 31 23 4 42 11
42 16 0 16 126 10 253 -12z m-2543 -114 c-9 -11 -9 -15 -1 -15 7 0 11 -7 9
-16 -2 -12 10 -21 40 -31 23 -8 42 -19 42 -24 0 -5 12 -7 28 -4 15 3 21 2 15
-1 -18 -8 -16 -24 2 -24 8 0 15 -4 15 -10 0 -12 -5 -13 -28 -1 -9 5 -50 14
-91 20 -80 12 -96 20 -104 52 -8 28 20 52 82 68 2 1 -2 -6 -9 -14z m-1027
-100 c-3 -9 -8 -14 -10 -11 -3 3 -2 9 2 15 9 16 15 13 8 -4z m52 -27 c-15 -18
-32 -43 -37 -57 l-10 -26 -11 30 c-5 17 -15 36 -21 44 -9 11 -5 12 23 6 26 -6
36 -3 52 14 31 33 34 25 4 -11z m-25 12 c0 -5 -5 -10 -11 -10 -5 0 -7 5 -4 10
3 6 8 10 11 10 2 0 4 -4 4 -10z m-3846 -27 c4 -9 13 -13 22 -9 26 10 116 -26
111 -45 -2 -8 2 -24 9 -34 26 -35 17 -70 -23 -101 -62 -47 -64 -50 -40 -62 12
-6 33 -13 47 -15 45 -8 -214 -5 -265 2 l-50 7 73 8 c53 6 72 12 72 23 0 10 -9
14 -30 11 -24 -2 -36 5 -65 40 -20 23 -41 40 -46 36 -15 -9 -10 23 6 36 14 11
13 14 -1 25 -15 11 -10 17 42 53 78 52 125 61 138 25z m161 -53 c3 -5 1 -10
-4 -10 -6 0 -11 5 -11 10 0 6 2 10 4 10 3 0 8 -4 11 -10z m10189 -45 c-4 -8 6
-16 25 -20 39 -8 50 -25 17 -25 -29 0 -33 -12 -11 -30 19 -16 19 -30 -1 -30
-8 0 -22 -7 -30 -15 -9 -8 -25 -15 -38 -15 -12 0 -26 -4 -31 -9 -13 -11 -137
10 -159 28 -9 7 -16 20 -16 29 0 19 29 52 45 52 7 0 18 7 25 15 10 12 9 16 -6
22 -13 5 5 10 51 13 93 7 135 2 129 -15z m-664 -57 c0 -61 -26 -111 -53 -102
-10 3 -24 1 -32 -6 -10 -9 -25 -5 -64 14 -28 14 -67 26 -88 27 -39 1 -38 3 9
13 16 4 32 18 42 38 23 44 21 48 -26 49 -31 1 -18 5 42 13 47 6 104 9 128 7
l42 -3 0 -50z m-9283 20 c-3 -8 -6 -5 -6 6 -1 11 2 17 5 13 3 -3 4 -12 1 -19z
m9750 16 c-3 -3 -12 -4 -19 -1 -8 3 -5 6 6 6 11 1 17 -2 13 -5z m-9909 -50
c-4 -3 -12 5 -18 18 -12 22 -12 22 6 6 10 -10 15 -20 12 -24z m162 6 c0 -5 -7
-10 -15 -10 -8 0 -15 5 -15 10 0 6 7 10 15 10 8 0 15 -4 15 -10z m-137 -50 l6
-35 -14 30 c-7 17 -11 34 -8 38 7 12 9 7 16 -33z m10192 -90 c13 0 27 -4 30
-10 4 -6 -6 -10 -22 -10 -15 0 -97 -3 -180 -6 -87 -3 -153 -2 -153 3 0 5 26
17 57 27 61 20 146 22 201 7 l32 -10 2 42 1 42 4 -42 c4 -38 7 -43 28 -43z
m-666 28 c-5 -17 -14 -36 -20 -42 -8 -8 -10 -6 -6 9 4 11 9 32 13 47 3 16 10
26 14 23 5 -3 4 -20 -1 -37z m-4639 -123 c0 -8 -7 -15 -15 -15 -16 0 -20 12
-8 23 11 12 23 8 23 -8z m-3626 -73 c3 -5 -1 -9 -9 -9 -8 0 -12 4 -9 9 3 4 7
8 9 8 2 0 6 -4 9 -8z m5893 -774 c-3 -8 -6 -5 -6 6 -1 11 2 17 5 13 3 -3 4
-12 1 -19z m10 -40 c-3 -8 -6 -5 -6 6 -1 11 2 17 5 13 3 -3 4 -12 1 -19z
m-4580 -10 c-3 -8 -6 -5 -6 6 -1 11 2 17 5 13 3 -3 4 -12 1 -19z m6953 -442
c0 -6 -7 -1 -15 10 -8 10 -15 23 -15 28 0 6 7 1 15 -10 8 -10 15 -23 15 -28z
m-5980 4 c7 -14 7 -20 0 -20 -5 0 -10 5 -10 10 0 6 -10 8 -24 4 -28 -7 -49 2
-41 17 11 17 64 10 75 -11z m0 -40 c0 -5 -4 -10 -10 -10 -5 0 -10 5 -10 10 0
6 5 10 10 10 6 0 10 -4 10 -10z m-1100 -30 c0 -11 -4 -20 -9 -20 -5 0 -7 9 -4
20 3 11 7 20 9 20 2 0 4 -9 4 -20z m-2703 -52 c-3 -8 -6 -5 -6 6 -1 11 2 17 5
13 3 -3 4 -12 1 -19z m10200 -50 c-3 -7 -5 -2 -5 12 0 14 2 19 5 13 2 -7 2
-19 0 -25z m-7927 12 c0 -5 -2 -10 -4 -10 -3 0 -8 5 -11 10 -3 6 -1 10 4 10 6
0 11 -4 11 -10z m1036 -28 c-22 -5 -30 3 -21 18 5 8 11 7 22 -2 15 -12 14 -13
-1 -16z m148 9 c3 -5 -1 -11 -9 -15 -15 -6 -29 7 -18 18 9 9 21 8 27 -3z m281
-1 c3 -5 -1 -10 -10 -10 -9 0 -13 5 -10 10 3 6 8 10 10 10 2 0 7 -4 10 -10z
m2775 -16 c0 -8 -5 -12 -10 -9 -6 4 -8 11 -5 16 9 14 15 11 15 -7z m157 -10
c-9 -9 -28 6 -21 18 4 6 10 6 17 -1 6 -6 8 -13 4 -17z m-5138 -121 c1 -18 -3
-33 -9 -33 -5 0 -10 12 -10 28 0 15 -2 45 -5 67 l-5 40 14 -35 c8 -19 15 -50
15 -67z m56 78 c-3 -6 -14 -10 -23 -10 -15 1 -15 2 1 6 9 2 17 9 17 15 0 6 3
9 6 5 3 -3 3 -10 -1 -16z m439 -18 c8 3 17 1 19 -6 3 -8 14 -3 33 13 l29 25
-25 -28 c-18 -21 -24 -39 -24 -70 1 -30 -1 -36 -7 -22 -4 11 -8 32 -8 48 -1
20 -6 27 -20 27 -31 0 -51 11 -51 28 0 13 3 12 20 -3 10 -9 26 -15 34 -12z
m-394 -13 c0 -5 -9 -10 -20 -10 -11 0 -29 -9 -40 -20 -11 -11 -20 -15 -20 -10
0 10 58 50 73 50 4 0 7 -4 7 -10z m68 -42 c21 -21 13 -29 -16 -14 -26 13 -31
13 -45 -2 -15 -14 -17 -14 -17 -1 0 9 3 19 7 22 11 11 58 8 71 -5z m6775 -55
c-13 -2 -35 -2 -50 0 -16 2 -5 4 22 4 28 0 40 -2 28 -4z m115 0 c-16 -2 -40
-2 -55 0 -16 2 -3 4 27 4 30 0 43 -2 28 -4z m-6988 -74 c0 -5 -4 -9 -10 -9 -5
0 -10 7 -10 16 0 8 5 12 10 9 6 -3 10 -10 10 -16z m3424 -12 c24 -32 14 -60
-23 -65 -19 -3 -21 1 -21 48 0 58 11 61 44 17z m-3456 -2 c-4 -20 -3 -23 8
-14 10 8 13 0 12 -42 0 -34 -3 -47 -9 -38 -6 10 -9 10 -9 1 0 -10 -4 -10 -19
0 -21 13 -18 33 2 22 7 -3 2 3 -10 13 l-23 18 20 33 c24 38 34 41 28 7z m158
-12 c2 -15 1 -49 -2 -76 l-6 -47 -29 40 c-29 39 -36 60 -21 60 4 0 16 13 27
29 22 34 26 33 31 -6z m323 -25 c-2 -52 0 -64 14 -66 9 -2 17 -11 17 -20 0
-15 -2 -15 -10 -2 -9 13 -10 13 -10 0 0 -13 -1 -13 -10 0 -8 12 -13 13 -30 3
-26 -17 -37 -16 -44 2 -5 15 14 17 25 2 3 -5 9 -2 12 7 4 10 1 16 -8 16 -8 0
-19 8 -24 18 -9 15 -12 15 -21 2 -8 -13 -10 -13 -10 3 0 9 -5 17 -11 17 -6 0
-9 -6 -6 -14 4 -9 -5 -21 -19 -31 -14 -9 -23 -19 -20 -23 2 -4 -5 -8 -16 -8
-20 0 -20 0 1 17 11 9 18 19 15 22 -3 3 -2 12 2 19 4 7 7 27 5 45 -3 40 4 41
41 6 l28 -27 31 37 c17 20 36 37 41 37 5 0 8 -28 7 -62z m2852 1 c7 -14 5 -16
-11 -12 -11 3 -20 0 -20 -6 0 -6 -11 -11 -24 -11 -21 0 -24 4 -20 26 3 14 10
32 17 39 10 11 15 10 30 -3 11 -9 23 -24 28 -33z m3319 34 c-14 -3 -28 -10
-32 -17 -5 -7 -8 -5 -8 7 0 13 8 17 33 16 27 -2 28 -2 7 -6z m-3730 -23 c0 -5
-2 -10 -4 -10 -3 0 -8 5 -11 10 -3 6 -1 10 4 10 6 0 11 -4 11 -10z m3879 -61
c-27 -27 -30 -24 -27 27 l3 45 21 -27 c21 -26 21 -27 3 -45z m-143 14 c-3 -8
-6 -17 -6 -19 0 -2 -7 -4 -15 -4 -9 0 -20 -10 -25 -22 -8 -20 -9 -18 -9 14 -1
25 5 40 16 46 22 13 46 3 39 -15z m234 1 c0 -8 -4 -12 -10 -9 -5 3 -10 13 -10
21 0 8 5 12 10 9 6 -3 10 -13 10 -21z m-6940 6 c0 -5 -9 -10 -21 -10 -11 0
-17 5 -14 10 3 6 13 10 21 10 8 0 14 -4 14 -10z m3024 -8 c3 -5 -1 -9 -9 -9
-8 0 -12 4 -9 9 3 4 7 8 9 8 2 0 6 -4 9 -8z m3724 -22 c11 -18 10 -20 -8 -20
-13 0 -20 7 -20 20 0 11 3 20 8 20 4 0 13 -9 20 -20z m-6448 -25 c0 -8 -4 -15
-10 -15 -5 0 -7 7 -4 15 4 8 8 15 10 15 2 0 4 -7 4 -15z m135 4 c-7 -11 -35
-12 -35 -1 0 4 9 8 20 9 11 1 18 -2 15 -8z m185 -6 c0 -15 -2 -15 -24 -7 -23
9 -20 23 4 21 11 -1 20 -7 20 -14z m60 3 c0 -16 -28 -17 -33 -1 -3 6 4 12 14
12 10 1 19 -4 19 -11z m60 -4 c0 -15 -2 -15 -10 -2 -7 11 -10 11 -10 2 0 -7
-4 -10 -10 -7 -16 10 -11 21 10 22 13 1 20 -4 20 -15z m58 6 c-7 -19 -38 -22
-38 -4 0 10 9 16 21 16 12 0 19 -5 17 -12z m42 0 c0 -9 4 -8 11 2 9 13 10 13
6 0 -2 -8 -12 -17 -22 -18 -10 -2 -15 0 -11 6 3 6 0 13 -6 15 -8 3 -6 6 5 6 9
1 17 -5 17 -11z m72 5 c-6 -3 -9 -9 -6 -15 4 -6 1 -9 -6 -6 -23 7 -21 24 2 25
13 0 17 -1 10 -4z m2061 -6 c3 -7 -3 -13 -14 -14 -15 -1 -16 1 -6 12 15 18 14
18 20 2z m-60 -12 c1 -5 -6 -11 -15 -13 -11 -2 -18 3 -18 13 0 17 30 18 33 0z
m3347 -5 c0 -5 -2 -10 -4 -10 -3 0 -8 5 -11 10 -3 6 -1 10 4 10 6 0 11 -4 11
-10z m54 -5 c-4 -8 -10 -15 -15 -15 -4 0 -6 7 -3 15 4 8 10 15 15 15 4 0 6 -7
3 -15z m73 9 c-3 -3 -12 -4 -19 -1 -8 3 -5 6 6 6 11 1 17 -2 13 -5z m60 -9
c-5 -14 -29 -13 -34 2 -3 7 4 11 16 10 12 -1 20 -6 18 -12z m48 -14 c-6 -5
-25 10 -25 20 0 5 6 4 14 -3 8 -7 12 -15 11 -17z m115 18 c0 -8 5 -8 15 1 9 8
15 9 15 2 0 -20 -22 -24 -38 -8 -11 10 -12 16 -4 16 7 0 12 -5 12 -11z m-3643
-15 c-3 -3 -12 -4 -19 -1 -8 3 -5 6 6 6 11 1 17 -2 13 -5z m-2904 -11 c-7 -2
-19 -2 -25 0 -7 3 -2 5 12 5 14 0 19 -2 13 -5z m240 -9 c-4 -11 -8 -12 -13 -4
-4 7 -13 9 -19 6 -6 -4 -11 -2 -11 3 0 6 11 11 25 11 18 0 23 -4 18 -16z m55
-1 c2 -7 -1 -13 -8 -13 -6 0 -8 5 -5 10 3 6 2 10 -4 10 -5 0 -12 -6 -14 -12
-3 -8 -6 -5 -6 5 -1 21 30 20 37 0z m60 5 c-3 -7 -11 -13 -18 -13 -7 0 -15 6
-17 13 -3 7 4 12 17 12 13 0 20 -5 18 -12z m56 -2 c-3 -8 -12 -12 -20 -9 -21
8 -17 23 6 23 13 0 18 -5 14 -14z m65 -8 c-5 -10 -12 -18 -15 -18 -3 0 -2 5 1
10 3 6 -1 10 -10 10 -9 0 -14 4 -10 9 3 6 14 9 24 8 16 -1 17 -5 10 -19z m121
8 c0 -20 -12 -27 -27 -15 -18 16 -16 24 7 26 11 1 20 -4 20 -11z m41 -6 c6 0
7 5 4 10 -3 6 -1 10 4 10 12 0 15 -23 4 -33 -8 -9 -33 12 -32 27 0 7 2 6 6 -1
2 -7 9 -13 14 -13z m74 2 c0 -7 -3 -12 -7 -12 -5 0 -12 0 -18 0 -5 0 -10 6
-10 14 0 8 8 13 18 12 9 -2 17 -8 17 -14z m121 6 c4 -7 3 -8 -4 -4 -8 4 -12 0
-12 -10 0 -14 -3 -15 -12 -6 -10 10 -10 15 2 22 19 12 17 12 26 -2z m-306 -13
c-7 -8 -14 -15 -15 -15 -2 0 -5 7 -9 15 -4 10 1 15 16 15 17 0 18 -2 8 -15z
m250 6 c0 -5 -9 -7 -20 -4 -11 3 -20 7 -20 9 0 2 9 4 20 4 11 0 20 -4 20 -9z
m2018 -13 c-6 -17 -38 -19 -38 -2 0 8 9 14 21 14 11 0 19 -5 17 -12z m55 -3
c-6 -18 -34 -16 -41 3 -2 7 6 12 22 12 19 0 24 -4 19 -15z m3337 -1 c0 -8 -5
-12 -10 -9 -6 4 -8 11 -5 16 9 14 15 11 15 -7z m17 -6 c-3 -8 -6 -5 -6 6 -1
11 2 17 5 13 3 -3 4 -12 1 -19z m53 14 c0 -5 -7 -9 -15 -9 -8 0 -12 4 -9 9 3
4 9 8 15 8 5 0 9 -4 9 -8z m144 -3 c3 -3 -6 -6 -20 -7 -14 -1 -23 2 -20 7 6 9
31 9 40 0z m39 -4 c-3 -9 -8 -14 -10 -11 -3 3 -2 9 2 15 9 16 15 13 8 -4z
m-2129 -10 c-4 -8 -8 -15 -10 -15 -2 0 -4 7 -4 15 0 8 4 15 10 15 5 0 7 -7 4
-15z m2149 0 c-3 -9 -8 -14 -10 -11 -3 3 -2 9 2 15 9 16 15 13 8 -4z m-3673
-35 c0 -11 -6 -20 -14 -20 -21 0 -31 21 -15 31 22 14 29 11 29 -11z m64 7 c4
4 4 0 0 -10 -7 -19 -29 -23 -39 -7 -10 17 5 33 19 21 7 -6 16 -8 20 -4z m1453
-14 c-9 -2 -14 -9 -11 -15 4 -7 2 -8 -4 -4 -20 12 -13 26 11 25 17 -1 18 -2 4
-6z m-1577 -43 c0 -5 -12 -10 -27 -10 -22 0 -25 2 -13 10 20 13 40 13 40 0z
m60 -6 c0 -2 -9 -4 -21 -4 -11 0 -18 4 -14 10 5 8 35 3 35 -6z m1615 -4 c3 -5
1 -10 -4 -10 -6 0 -11 5 -11 10 0 6 2 10 4 10 3 0 8 -4 11 -10z m-5930 -10
c-3 -5 -13 -10 -22 -10 -13 0 -13 -3 -3 -15 7 -8 27 -15 44 -15 17 0 38 -5 46
-10 12 -8 9 -10 -12 -10 -23 0 -28 -4 -28 -24 0 -24 -1 -25 -37 -12 -31 11
-45 11 -76 0 -36 -13 -37 -13 -32 9 5 18 0 25 -22 34 -26 10 -25 11 23 12 61
1 85 19 52 38 -21 11 -19 12 25 13 30 0 46 -4 42 -10z m1534 -26 c2 -2 -10 -4
-28 -4 -49 0 -33 -22 25 -36 37 -9 42 -12 20 -13 -25 -1 -28 -4 -22 -27 6 -22
4 -25 -9 -20 -40 15 -65 17 -99 8 -35 -10 -36 -10 -30 14 5 21 3 24 -22 25
l-29 1 30 8 c17 4 42 11 58 14 39 9 33 26 -10 27 l-38 2 35 7 c32 6 109 2 119
-6z m-1716 -8 c4 -9 -5 -16 -26 -20 -17 -3 -41 -16 -53 -27 -14 -13 -24 -17
-29 -10 -10 17 4 31 49 52 50 22 52 23 59 5z m318 -1 c51 -22 70 -40 63 -59
-6 -15 -8 -14 -24 4 -10 12 -31 25 -46 29 -15 4 -28 15 -30 24 -3 21 -4 20 37
2z m-508 -2 c-7 -2 -21 -2 -30 0 -10 3 -4 5 12 5 17 0 24 -2 18 -5z m1708 -6
c-6 -8 -8 -16 -5 -20 3 -3 -11 -10 -31 -16 -21 -5 -46 -18 -56 -27 -12 -11
-19 -13 -19 -5 0 7 -6 9 -12 6 -7 -4 0 4 16 17 17 13 48 31 70 40 51 21 51 21
37 5z m1644 3 c16 -7 12 -9 -19 -9 -33 -1 -37 -3 -26 -16 7 -8 24 -15 39 -15
14 0 33 -5 41 -10 12 -8 9 -10 -13 -10 -24 0 -27 -3 -21 -24 6 -24 5 -24 -33
-11 -32 11 -43 11 -72 -1 -33 -14 -33 -14 -27 11 5 20 3 25 -14 25 -38 0 -20
19 22 22 38 3 69 28 34 28 -9 0 -16 5 -16 10 0 12 77 12 105 0z m-2574 -15
c46 -8 111 -24 144 -35 87 -31 255 -32 345 -2 36 12 103 26 150 32 121 14 152
11 45 -6 -52 -8 -112 -25 -144 -40 l-54 -27 -191 7 c-105 4 -192 11 -194 16
-4 11 -79 36 -163 55 -86 18 -43 19 62 0z m1271 -28 c18 -14 25 -26 20 -35 -7
-9 -15 -6 -36 13 -15 14 -36 25 -46 25 -12 0 -18 7 -17 19 1 15 5 17 27 10 14
-5 37 -19 52 -32z m2728 33 c22 -7 21 -8 -13 -9 -52 -1 -44 -24 11 -32 49 -6
67 -19 28 -19 -25 0 -27 -3 -22 -25 7 -29 8 -29 -35 -11 -21 8 -42 10 -54 5
-36 -14 -54 -11 -48 10 3 13 -2 21 -19 26 -20 7 -17 9 19 12 44 4 82 32 47 34
-11 1 -28 1 -39 0 l-20 -1 20 9 c24 12 91 12 125 1z m5732 3 c-49 -6 -34 -26
29 -39 40 -8 48 -12 29 -15 -19 -3 -24 -9 -22 -27 2 -20 -1 -22 -20 -15 -13 4
-36 8 -53 8 -16 0 -40 -4 -53 -8 -19 -7 -22 -5 -20 14 2 18 -3 25 -27 30 l-30
7 32 1 c74 3 104 33 43 44 -14 2 9 4 50 4 41 0 60 -2 42 -4z m-7075 -14 c15
-5 45 -22 66 -36 32 -23 36 -28 22 -36 -12 -6 -23 -3 -38 11 -12 11 -31 22
-42 24 -11 2 -20 9 -20 16 0 7 -7 17 -15 22 -20 13 -8 12 27 -1z m2003 1 c3
-1 8 -2 13 -1 4 0 7 -3 7 -9 0 -5 -13 -7 -30 -5 -23 3 -30 -1 -31 -13 0 -11
-2 -13 -6 -4 -12 30 12 45 47 32z m740 3 c-8 -2 -22 -7 -30 -10 -25 -8 18 -33
59 -34 l36 -1 -28 -10 c-22 -8 -26 -14 -21 -30 5 -17 3 -19 -18 -12 -30 11
-67 11 -97 0 -21 -7 -23 -6 -19 12 5 16 0 23 -21 31 l-26 9 27 1 c66 2 95 31
43 44 -11 3 9 5 45 5 36 0 58 -2 50 -5z m1416 -2 c-45 -9 -34 -25 26 -37 52
-10 52 -10 20 -17 -30 -6 -32 -9 -21 -28 10 -19 9 -21 -6 -15 -40 15 -65 17
-100 7 -34 -9 -37 -8 -32 9 4 16 -2 22 -26 29 l-32 9 32 1 c39 1 83 17 83 30
0 5 -15 12 -32 14 -18 2 1 4 42 4 44 0 63 -2 46 -6z m1436 2 c-49 -6 -34 -26
29 -40 30 -6 42 -12 28 -12 -34 -1 -41 -9 -28 -33 10 -18 8 -19 -13 -12 -29
11 -76 11 -106 1 -19 -7 -22 -5 -20 15 3 19 -3 24 -27 27 -26 4 -22 6 24 15
63 13 78 33 29 39 -18 2 1 4 42 4 41 0 60 -2 42 -4z m-6869 -10 c-7 -2 -21 -2
-30 0 -10 3 -4 5 12 5 17 0 24 -2 18 -5z m995 -10 c-2 -9 -13 -20 -25 -23 -13
-3 -32 -13 -44 -23 -24 -21 -39 -14 -23 10 10 16 71 53 87 53 5 0 7 -8 5 -17z
m1433 4 c-6 -8 -8 -17 -5 -20 4 -3 -7 -9 -22 -13 -16 -4 -39 -16 -51 -27 -14
-12 -23 -16 -23 -8 0 7 -5 9 -12 5 -9 -6 -9 -3 0 9 12 13 107 67 120 67 3 0
-1 -6 -7 -13z m341 -38 c27 -20 29 -23 13 -32 -14 -7 -21 -6 -31 7 -7 10 -25
21 -41 25 -15 4 -28 12 -28 17 0 5 -4 15 -9 22 -11 17 53 -9 96 -39z m5404 31
c0 -12 -7 -20 -17 -20 -10 0 -31 -12 -48 -26 -29 -24 -31 -25 -31 -5 0 13 15
29 43 45 51 31 53 31 53 6z m334 -5 c54 -28 67 -40 46 -48 -8 -3 -22 3 -32 14
-9 10 -30 19 -45 19 -22 0 -27 4 -26 20 2 25 -2 25 57 -5z m-8280 -20 c99 -30
260 -35 332 -11 54 18 142 33 233 40 l70 6 -80 -15 c-92 -18 -172 -42 -180
-56 -4 -5 -89 -9 -192 -9 -165 0 -188 2 -211 19 -23 16 -66 30 -167 55 -11 3
10 3 46 1 37 -3 104 -16 149 -30z m1187 29 c-3 -3 -12 -4 -19 -1 -8 3 -5 6 6
6 11 1 17 -2 13 -5z m2426 -14 c-3 -11 -11 -20 -18 -20 -8 0 -27 -12 -44 -26
-17 -14 -31 -20 -31 -14 0 7 -7 10 -16 6 -31 -12 -1 15 49 44 62 35 67 36 60
10z m300 -1 c60 -30 71 -40 56 -50 -7 -4 -23 1 -37 12 -14 10 -33 19 -42 19
-10 0 -20 9 -23 20 -6 25 -6 25 46 -1z m1120 1 c-3 -11 -13 -20 -23 -20 -9 0
-29 -10 -44 -21 -19 -15 -31 -18 -37 -12 -11 11 28 45 72 62 35 14 38 13 32
-9z m302 -1 c51 -24 71 -44 55 -54 -5 -3 -22 3 -36 14 -15 12 -35 21 -44 21
-10 0 -20 9 -23 20 -6 25 -7 25 48 -1z m1138 15 c-7 -3 -9 -12 -6 -20 3 -10
-2 -14 -18 -14 -12 0 -33 -9 -45 -21 -25 -24 -53 -17 -33 8 16 19 80 52 99 52
9 0 10 -2 3 -5z m330 -27 c38 -21 45 -31 26 -42 -6 -4 -16 0 -22 9 -7 9 -24
20 -39 24 -15 4 -27 11 -27 16 0 5 -5 13 -13 18 -24 17 35 -3 75 -25z m-5442
7 c46 -8 91 -20 101 -25 33 -18 267 -12 358 10 47 11 121 23 165 26 l80 5 -95
-18 c-52 -9 -116 -27 -141 -40 -41 -20 -60 -22 -214 -22 -159 0 -171 1 -219
25 -28 14 -80 31 -116 39 -93 20 -25 20 81 0z m6330 -5 c-47 -10 -103 -28
-125 -40 -37 -20 -61 -22 -233 -26 -121 -3 -193 -2 -193 5 0 13 -72 39 -155
56 l-70 15 70 -6 c39 -3 104 -15 145 -26 48 -13 118 -22 194 -24 102 -4 130
-1 186 17 70 22 198 48 240 48 14 0 -13 -8 -59 -19z m792 14 c-7 -2 -21 -2
-30 0 -10 3 -4 5 12 5 17 0 24 -2 18 -5z m-5708 -17 c44 -8 93 -19 108 -25 16
-6 46 -11 67 -11 46 0 72 -9 64 -21 -8 -13 -161 -11 -169 2 -10 15 -49 29
-135 50 -93 21 -48 25 65 5z m592 -6 c-48 -10 -104 -28 -124 -40 -30 -18 -50
-21 -124 -19 -84 2 -87 3 -82 23 2 11 5 27 5 35 1 10 5 9 14 -4 11 -14 11 -22
2 -32 -9 -12 -7 -13 13 -9 13 3 40 8 59 10 19 2 50 9 67 16 44 16 169 38 218
38 29 1 16 -5 -48 -18z m888 -11 c111 -31 268 -33 380 -4 49 13 122 26 160 29
l70 6 -89 -20 c-50 -10 -102 -28 -118 -40 -25 -18 -41 -20 -211 -20 -151 0
-187 3 -197 15 -13 16 -54 29 -155 51 l-60 14 75 -6 c41 -3 107 -14 145 -25z
m1420 -2 c104 -30 301 -30 410 1 44 12 107 25 140 27 l60 5 -75 -19 c-87 -21
-125 -35 -135 -50 -4 -7 -71 -11 -190 -11 -168 0 -187 2 -219 21 -19 11 -75
29 -123 40 l-88 19 75 -6 c41 -4 107 -16 145 -27z m-2651 -2 c-4 -8 -10 -15
-15 -15 -5 0 -9 7 -9 15 0 8 7 15 15 15 9 0 12 -6 9 -15z m-2024 -113 c0 -5
-7 -9 -15 -9 -8 0 -12 4 -9 9 3 4 9 8 15 8 5 0 9 -4 9 -8z m4087 -18 c-3 -3
-12 -4 -19 -1 -8 3 -5 6 6 6 11 1 17 -2 13 -5z m-3344 -51 c-7 -2 -19 -2 -25
0 -7 3 -2 5 12 5 14 0 19 -2 13 -5z m940 0 c-7 -2 -21 -2 -30 0 -10 3 -4 5 12
5 17 0 24 -2 18 -5z m907 -5 c0 -10 -181 -9 -235 0 -25 5 12 7 97 7 76 0 138
-3 138 -7z m-1552 -58 c0 -23 -4 -30 -19 -30 -21 0 -24 12 -9 41 15 28 27 23
28 -11z m62 20 c0 -5 -9 -10 -21 -10 -11 0 -17 5 -14 10 3 6 13 10 21 10 8 0
14 -4 14 -10z m1920 -5 c0 -8 -9 -15 -20 -15 -11 0 -20 7 -20 15 0 8 9 15 20
15 11 0 20 -7 20 -15z m51 5 c6 0 7 -4 4 -10 -10 -15 -32 -12 -39 6 -5 12 -2
15 10 10 8 -3 20 -6 25 -6z m-2087 -31 c-4 -7 -7 -21 -8 -33 -1 -14 -9 -22
-25 -24 -21 -3 -23 -1 -18 20 4 12 7 29 7 36 0 6 12 12 26 12 16 0 23 -4 18
-11z m2096 -14 c0 -8 -9 -15 -20 -15 -11 0 -20 7 -20 15 0 8 9 15 20 15 11 0
20 -7 20 -15z m55 -5 c-4 -11 -2 -20 4 -20 17 0 13 -20 -5 -27 -22 -8 -43 15
-24 27 8 5 10 10 4 10 -7 0 -14 7 -18 15 -4 11 2 15 20 15 21 0 24 -4 19 -20z
m-2219 -26 c-3 -9 -6 -24 -6 -35 0 -12 -7 -19 -19 -19 -22 0 -41 22 -24 27 6
2 9 13 6 23 -4 16 0 20 22 20 21 0 26 -4 21 -16z m2291 -29 c1 -38 -15 -46
-37 -20 -10 12 -9 15 6 15 18 1 18 1 2 11 -25 14 -22 29 5 29 19 0 23 -5 24
-35z m-2362 -27 c-11 -58 -27 -88 -45 -88 -10 0 -21 8 -25 18 -6 15 -8 14 -16
-7 -6 -14 -7 -31 -5 -38 4 -9 -5 -13 -30 -13 -30 0 -37 -4 -45 -30 -12 -34
-39 -41 -39 -10 0 12 7 20 17 20 9 0 14 3 10 6 -3 4 -23 6 -44 6 -22 0 -45 3
-53 9 -11 6 -3 9 26 9 28 0 44 5 48 15 7 19 35 20 42 1 3 -8 14 -14 24 -13 10
1 16 6 12 12 -14 23 -13 55 3 55 10 0 15 7 13 18 -2 13 4 17 32 18 30 0 35 4
33 22 -2 18 2 22 23 22 24 0 25 -3 19 -32z m2425 7 c0 -8 -9 -15 -19 -15 -10
0 -21 7 -25 15 -4 11 1 15 19 15 16 0 25 -6 25 -15z m10 -39 c0 -8 -6 -17 -12
-19 -8 -3 -5 -6 5 -6 25 -1 16 -25 -11 -29 -16 -3 -22 2 -22 16 0 11 -3 27 -6
36 -5 12 0 16 20 16 16 0 26 -6 26 -14z m57 -6 c-3 -11 -2 -20 3 -20 4 0 7
-11 6 -25 -2 -40 -33 -32 -45 13 -15 51 -14 52 15 52 21 0 25 -4 21 -20z
m-2740 4 c-3 -3 -12 -4 -19 -1 -8 3 -5 6 6 6 11 1 17 -2 13 -5z m-2117 -53 c0
-5 -5 -11 -12 -13 -7 -3 -11 -33 -10 -91 1 -48 0 -87 -3 -87 -6 0 -174 146
-203 176 l-23 24 126 0 c69 0 125 -4 125 -9z m4923 -18 c-7 -2 -19 -2 -25 0
-7 3 -2 5 12 5 14 0 19 -2 13 -5z m395 -85 c3 -92 -7 -128 -36 -128 -16 1 -16
1 0 10 14 9 13 13 -14 40 -16 17 -33 30 -38 30 -4 0 -13 7 -20 15 -18 21 -42
0 -38 -34 2 -18 8 -25 21 -23 9 2 17 -2 17 -8 0 -6 7 -6 20 2 24 15 26 12 35
-33 7 -36 6 -37 -29 -41 -20 -2 -36 -1 -36 3 0 3 -18 3 -39 -1 l-39 -7 -9 46
c-8 45 -10 46 -43 45 -33 -1 -49 9 -50 30 0 4 9 6 20 3 11 -3 35 -1 54 3 28 6
36 4 39 -9 3 -11 5 -9 6 6 1 13 10 24 22 28 20 7 19 9 -17 46 -21 21 -35 41
-33 44 12 11 89 23 144 22 l60 -2 3 -87z m-4845 75 c-23 -2 -64 -2 -90 0 -26
2 -7 3 42 3 50 0 71 -1 48 -3z m94 1 c-3 -3 -12 -4 -19 -1 -8 3 -5 6 6 6 11 1
17 -2 13 -5z m161 -1 c-27 -2 -69 -2 -95 0 -27 2 -5 3 47 3 52 0 74 -1 48 -3z
m249 1 c-3 -3 -12 -4 -19 -1 -8 3 -5 6 6 6 11 1 17 -2 13 -5z m93 -6 c0 -12
-68 -10 -75 2 -4 7 8 10 34 9 23 -2 41 -7 41 -11z m273 -5 c-34 -2 -93 -2
-130 0 -37 2 -9 3 62 3 72 0 102 -1 68 -3z m1227 -3 c0 -12 -37 -14 -44 -2 -2
4 6 9 20 10 13 1 24 -3 24 -8z m97 4 c-3 -3 -12 -4 -19 -1 -8 3 -5 6 6 6 11 1
17 -2 13 -5z m2323 -3 c45 -2 50 -4 28 -11 -14 -4 -48 -7 -75 -5 -26 1 -65 3
-86 3 -21 1 -36 6 -33 11 3 4 29 7 58 6 29 -1 78 -3 108 -4z m2039 -40 l-54
-49 -47 40 c-27 22 -50 44 -54 49 -3 5 40 9 102 9 l108 0 -55 -49z m-6052 33
c-3 -3 -12 -4 -19 -1 -8 3 -5 6 6 6 11 1 17 -2 13 -5z m1881 -1 c-10 -2 -28
-2 -40 0 -13 2 -5 4 17 4 22 1 32 -1 23 -4z m1639 1 c-3 -3 -12 -4 -19 -1 -8
3 -5 6 6 6 11 1 17 -2 13 -5z m1480 0 c-3 -3 -12 -4 -19 -1 -8 3 -5 6 6 6 11
1 17 -2 13 -5z m401 -1 c-10 -2 -28 -2 -40 0 -13 2 -5 4 17 4 22 1 32 -1 23
-4z m-4246 -35 c-3 -13 -7 -17 -10 -10 -2 7 -7 10 -12 7 -4 -3 -10 1 -13 8 -3
8 4 14 18 15 19 1 22 -2 17 -20z m2803 2 c-3 -5 -13 -10 -21 -10 -8 0 -14 5
-14 10 0 6 9 10 21 10 11 0 17 -4 14 -10z m65 1 c0 -11 -26 -22 -34 -14 -12
12 -5 23 14 23 11 0 20 -4 20 -9z m-3384 -16 c-19 -14 -36 -12 -36 6 0 5 12 9
28 9 26 -1 26 -1 8 -15z m232 3 c-7 -19 -31 -21 -53 -4 -19 15 -18 15 18 16
27 0 37 -4 35 -12z m195 -5 c-7 -2 -21 -2 -30 0 -10 3 -4 5 12 5 17 0 24 -2
18 -5z m-3476 -25 c-3 -8 -6 -5 -6 6 -1 11 2 17 5 13 3 -3 4 -12 1 -19z m273
18 c0 -3 -4 -8 -10 -11 -5 -3 -10 -1 -10 4 0 6 5 11 10 11 6 0 10 -2 10 -4z
m506 -23 c-10 -10 -19 5 -10 18 6 11 8 11 12 0 2 -7 1 -15 -2 -18z m71 12 c0
-8 -4 -15 -9 -15 -10 0 -11 14 -1 23 9 10 10 9 10 -8z m73 0 c0 -8 -6 -15 -13
-15 -8 0 -14 7 -14 15 0 8 6 15 14 15 7 0 13 -7 13 -15z m67 0 c0 -8 -6 -15
-14 -15 -7 0 -13 7 -13 15 0 8 6 15 13 15 8 0 14 -7 14 -15z m63 0 c0 -8 -4
-15 -10 -15 -5 0 -10 7 -10 15 0 8 5 15 10 15 6 0 10 -7 10 -15z m70 0 c0 -8
-6 -15 -13 -15 -8 0 -14 7 -14 15 0 8 6 15 14 15 7 0 13 -7 13 -15z m657 9
c-3 -3 -12 -4 -19 -1 -8 3 -5 6 6 6 11 1 17 -2 13 -5z m66 -1 c-7 -2 -19 -2
-25 0 -7 3 -2 5 12 5 14 0 19 -2 13 -5z m64 1 c-3 -3 -12 -4 -19 -1 -8 3 -5 6
6 6 11 1 17 -2 13 -5z m66 -1 c-7 -2 -19 -2 -25 0 -7 3 -2 5 12 5 14 0 19 -2
13 -5z m64 1 c-3 -3 -12 -4 -19 -1 -8 3 -5 6 6 6 11 1 17 -2 13 -5z m66 -1
c-7 -2 -19 -2 -25 0 -7 3 -2 5 12 5 14 0 19 -2 13 -5z m64 1 c-3 -3 -12 -4
-19 -1 -8 3 -5 6 6 6 11 1 17 -2 13 -5z m370 0 c-3 -3 -12 -4 -19 -1 -8 3 -5
6 6 6 11 1 17 -2 13 -5z m60 -9 c0 -8 -4 -15 -9 -15 -4 0 -8 7 -8 15 0 8 4 15
8 15 5 0 9 -7 9 -15z m4297 -1 c4 -11 1 -14 -11 -12 -9 2 -18 9 -21 16 -6 18
25 15 32 -4z m-7420 -15 c-3 -5 -10 -7 -15 -3 -5 3 -7 10 -3 15 3 5 10 7 15 3
5 -3 7 -10 3 -15z m461 11 c3 -5 1 -10 -4 -10 -6 0 -11 5 -11 10 0 6 2 10 4
10 3 0 8 -4 11 -10z m715 0 c0 -5 -4 -10 -10 -10 -5 0 -10 5 -10 10 0 6 5 10
10 10 6 0 10 -4 10 -10z m60 0 c0 -5 -5 -10 -11 -10 -5 0 -7 5 -4 10 3 6 8 10
11 10 2 0 4 -4 4 -10z m1953 -10 c-3 -11 -7 -20 -8 -20 -1 0 -5 9 -8 20 -3 12
0 20 8 20 8 0 11 -8 8 -20z m67 16 c0 -3 -4 -8 -10 -11 -5 -3 -10 -1 -10 4 0
6 5 11 10 11 6 0 10 -2 10 -4z m70 0 c0 -11 -19 -15 -25 -6 -3 5 1 10 9 10 9
0 16 -2 16 -4z m67 -2 c-3 -3 -12 -4 -19 -1 -8 3 -5 6 6 6 11 1 17 -2 13 -5z
m60 0 c-3 -3 -12 -4 -19 -1 -8 3 -5 6 6 6 11 1 17 -2 13 -5z m630 0 c-3 -3
-12 -4 -19 -1 -8 3 -5 6 6 6 11 1 17 -2 13 -5z m60 0 c-3 -3 -12 -4 -19 -1 -8
3 -5 6 6 6 11 1 17 -2 13 -5z m67 -9 c-4 -8 -9 -15 -13 -15 -4 0 -8 7 -8 15 0
8 6 15 13 15 8 0 11 -6 8 -15z m63 9 c-3 -3 -12 -4 -19 -1 -8 3 -5 6 6 6 11 1
17 -2 13 -5z m66 -1 c-7 -2 -19 -2 -25 0 -7 3 -2 5 12 5 14 0 19 -2 13 -5z
m64 1 c-3 -3 -12 -4 -19 -1 -8 3 -5 6 6 6 11 1 17 -2 13 -5z m60 0 c-3 -3 -12
-4 -19 -1 -8 3 -5 6 6 6 11 1 17 -2 13 -5z m300 0 c-3 -3 -12 -4 -19 -1 -8 3
-5 6 6 6 11 1 17 -2 13 -5z m-2457 -8 c0 -2 -9 -6 -20 -9 -11 -3 -18 -1 -14 4
5 9 34 13 34 5z m60 0 c0 -2 -7 -7 -16 -10 -8 -3 -12 -2 -9 4 6 10 25 14 25 6z
m70 0 c0 -2 -7 -6 -15 -10 -8 -3 -15 -1 -15 4 0 6 7 10 15 10 8 0 15 -2 15 -4z
m60 0 c0 -3 -4 -8 -10 -11 -5 -3 -10 -1 -10 4 0 6 5 11 10 11 6 0 10 -2 10 -4z
m70 0 c0 -2 -7 -6 -15 -10 -8 -3 -15 -1 -15 4 0 6 7 10 15 10 8 0 15 -2 15 -4z
m60 0 c0 -3 -4 -8 -10 -11 -5 -3 -10 -1 -10 4 0 6 5 11 10 11 6 0 10 -2 10 -4z
m60 -6 c0 -5 -2 -10 -4 -10 -3 0 -8 5 -11 10 -3 6 -1 10 4 10 6 0 11 -4 11
-10z m2397 4 c-3 -3 -12 -4 -19 -1 -8 3 -5 6 6 6 11 1 17 -2 13 -5z m60 0 c-3
-3 -12 -4 -19 -1 -8 3 -5 6 6 6 11 1 17 -2 13 -5z m830 0 c-3 -3 -12 -4 -19
-1 -8 3 -5 6 6 6 11 1 17 -2 13 -5z m60 0 c-3 -3 -12 -4 -19 -1 -8 3 -5 6 6 6
11 1 17 -2 13 -5z m130 0 c-3 -3 -12 -4 -19 -1 -8 3 -5 6 6 6 11 1 17 -2 13
-5z m60 0 c-3 -3 -12 -4 -19 -1 -8 3 -5 6 6 6 11 1 17 -2 13 -5z m298 -4 c-3
-5 -12 -10 -18 -10 -7 0 -6 4 3 10 19 12 23 12 15 0z m185 6 c0 -11 -19 -15
-25 -6 -3 5 1 10 9 10 9 0 16 -2 16 -4z m54 -11 c-4 -8 -7 -15 -9 -15 -2 0 -5
7 -9 15 -3 9 0 15 9 15 9 0 12 -6 9 -15z m63 9 c-3 -3 -12 -4 -19 -1 -8 3 -5
6 6 6 11 1 17 -2 13 -5z m840 0 c-3 -3 -12 -4 -19 -1 -8 3 -5 6 6 6 11 1 17
-2 13 -5z m130 0 c-3 -3 -12 -4 -19 -1 -8 3 -5 6 6 6 11 1 17 -2 13 -5z m130
0 c-3 -3 -12 -4 -19 -1 -8 3 -5 6 6 6 11 1 17 -2 13 -5z m370 0 c-3 -3 -12 -4
-19 -1 -8 3 -5 6 6 6 11 1 17 -2 13 -5z m60 -9 c0 -6 -6 -12 -12 -12 -6 0 -12
6 -12 12 0 6 6 12 12 12 6 0 12 -6 12 -12z m130 9 c-3 -3 -12 -4 -19 -1 -8 3
-5 6 6 6 11 1 17 -2 13 -5z m60 0 c-3 -3 -12 -4 -19 -1 -8 3 -5 6 6 6 11 1 17
-2 13 -5z m840 0 c-3 -3 -12 -4 -19 -1 -8 3 -5 6 6 6 11 1 17 -2 13 -5z m70 0
c-3 -3 -12 -4 -19 -1 -8 3 -5 6 6 6 11 1 17 -2 13 -5z m130 0 c-3 -3 -12 -4
-19 -1 -8 3 -5 6 6 6 11 1 17 -2 13 -5z m210 0 c-3 -3 -12 -4 -19 -1 -8 3 -5
6 6 6 11 1 17 -2 13 -5z m-5767 -18 c0 5 12 10 27 11 14 0 22 -2 16 -5 -5 -4
-12 -15 -16 -24 -4 -13 -16 -17 -44 -15 -37 2 -38 1 -48 -43 l-10 -46 -37 7
c-21 3 -38 3 -38 -1 0 -3 -16 -4 -35 -2 -19 2 -35 8 -35 13 0 5 -5 9 -11 9 -6
0 -9 -7 -5 -15 3 -10 -1 -15 -12 -16 -16 -1 -16 -2 0 -6 21 -5 12 -33 -11 -34
-12 0 -12 -2 4 -9 11 -5 14 -9 7 -9 -7 -1 -10 -5 -7 -11 4 -6 -24 -9 -77 -8
l-83 2 70 6 70 6 -70 4 -70 3 55 7 55 7 -50 3 c-45 2 -47 3 -20 10 28 7 29 8
5 10 -23 1 -23 2 -5 10 14 6 15 9 5 10 -8 1 -1 7 15 13 l30 11 -30 7 -30 7 30
2 c30 2 30 2 5 10 -20 6 -16 8 23 9 27 1 57 -4 68 -9 14 -8 19 -7 19 1 0 6 7
9 15 5 10 -4 15 1 15 14 0 16 6 19 43 17 37 -2 42 1 45 21 3 19 8 23 25 19 12
-2 33 -1 47 3 14 4 31 2 38 -3 6 -5 12 -6 12 -1z m120 10 c0 -3 -4 -8 -10 -11
-5 -3 -10 -1 -10 4 0 6 5 11 10 11 6 0 10 -2 10 -4z m127 -2 c-3 -3 -12 -4
-19 -1 -8 3 -5 6 6 6 11 1 17 -2 13 -5z m1528 -27 c15 -4 14 -5 -7 -6 -21 -1
-28 4 -28 17 0 11 3 13 8 6 4 -7 16 -14 27 -17z m1992 17 c-3 -3 -12 -4 -19
-1 -8 3 -5 6 6 6 11 1 17 -2 13 -5z m623 -4 c0 -5 -2 -10 -4 -10 -3 0 -8 5
-11 10 -3 6 -1 10 4 10 6 0 11 -4 11 -10z m60 0 c0 -5 -2 -10 -4 -10 -3 0 -8
5 -11 10 -3 6 -1 10 4 10 6 0 11 -4 11 -10z m70 0 c0 -5 -7 -7 -15 -4 -8 4
-15 8 -15 10 0 2 7 4 15 4 8 0 15 -4 15 -10z m65 0 c3 -6 -1 -7 -9 -4 -18 7
-21 14 -7 14 6 0 13 -4 16 -10z m122 4 c-3 -3 -12 -4 -19 -1 -8 3 -5 6 6 6 11
1 17 -2 13 -5z m650 0 c-3 -3 -12 -4 -19 -1 -8 3 -5 6 6 6 11 1 17 -2 13 -5z
m270 0 c-3 -3 -12 -4 -19 -1 -8 3 -5 6 6 6 11 1 17 -2 13 -5z m828 -4 c3 -5 1
-10 -4 -10 -6 0 -11 5 -11 10 0 6 2 10 4 10 3 0 8 -4 11 -10z m455 -10 c0 -5
-2 -10 -4 -10 -3 0 -8 5 -11 10 -3 6 -1 10 4 10 6 0 11 -4 11 -10z m70 0 c0
-5 -4 -10 -10 -10 -5 0 -10 5 -10 10 0 6 5 10 10 10 6 0 10 -4 10 -10z m-7405
-110 c8 -13 -16 -91 -27 -84 -4 3 -40 7 -78 9 -67 4 -70 3 -76 -20 -5 -22 -12
-25 -50 -25 -31 0 -44 -4 -44 -14 0 -18 -47 -49 -55 -36 -11 18 -43 10 -63
-15 -21 -27 -56 -33 -66 -12 -5 10 -7 10 -12 0 -3 -7 -17 -13 -30 -13 -25 0
-31 20 -18 68 6 21 12 22 90 22 80 0 84 1 90 24 5 20 11 23 47 22 37 -1 42 2
45 23 3 21 7 23 48 18 37 -4 44 -2 44 13 0 9 3 20 7 23 10 11 141 8 148 -3z
m1895 -10 c0 -5 -5 -10 -11 -10 -5 0 -7 5 -4 10 3 6 8 10 11 10 2 0 4 -4 4
-10z m1848 3 c-21 -2 -55 -2 -75 0 -21 2 -4 4 37 4 41 0 58 -2 38 -4z m194 -8
c5 -6 8 -5 8 3 0 22 28 12 34 -13 6 -25 20 -30 74 -25 16 1 22 -4 22 -19 0
-21 14 -26 67 -21 15 1 22 -5 25 -21 3 -22 7 -23 86 -21 l82 2 6 -27 c5 -28 6
-28 74 -25 68 4 69 3 72 -24 3 -27 4 -27 78 -28 64 -1 75 -3 72 -18 -1 -9 2
-19 8 -23 5 -3 10 -15 10 -26 0 -13 -7 -19 -24 -19 -19 0 -28 8 -37 35 -7 19
-17 35 -21 35 -11 0 -10 -18 2 -25 6 -3 10 -15 10 -26 0 -13 -7 -19 -24 -19
-19 0 -28 8 -37 35 -12 33 -29 47 -29 25 0 -14 -47 -12 -54 3 -5 10 -7 10 -12
0 -3 -7 -17 -13 -30 -13 -19 0 -26 6 -31 30 -7 35 -18 46 -27 25 -7 -20 -33
-19 -46 3 -10 16 -10 16 -20 0 -16 -26 -30 -22 -59 13 -23 26 -29 29 -52 21
-31 -12 -55 0 -63 32 -5 21 -9 23 -45 16 -38 -7 -40 -6 -46 21 l-7 29 -80 -3
-81 -2 -9 30 c-13 48 -4 57 50 53 26 -2 50 -7 54 -13z m-179 -12 c-24 -2 -62
-2 -85 0 -24 2 -5 4 42 4 47 0 66 -2 43 -4z m-1866 -25 c-3 -8 -6 -5 -6 6 -1
11 2 17 5 13 3 -3 4 -12 1 -19z m1871 5 c-21 -2 -57 -2 -80 0 -24 2 -7 4 37 4
44 0 63 -2 43 -4z m5 -20 c-24 -2 -62 -2 -85 0 -24 2 -5 4 42 4 47 0 66 -2 43
-4z m-2230 -12 c4 -1 7 -10 7 -21 0 -18 -7 -20 -73 -20 -81 0 -91 4 -77 31 8
15 20 17 72 14 35 -1 66 -3 71 -4z m897 -22 c0 -16 -9 -18 -75 -18 -66 0 -75
2 -75 18 0 16 9 18 75 18 66 0 75 -2 75 -18z m1355 11 c-16 -7 -17 -9 -3 -9 9
-1 20 -6 24 -12 4 -8 -11 -10 -49 -7 -31 1 -53 0 -49 -4 4 -4 30 -9 57 -11 38
-2 31 -4 -28 -5 -55 -1 -76 1 -71 9 3 6 0 15 -7 20 -10 6 -3 9 21 10 l35 1
-30 8 c-22 6 -10 8 45 8 50 0 68 -2 55 -8z m-3623 -30 c-3 -19 -10 -30 -21
-31 -9 0 -11 -3 -5 -5 12 -5 5 -56 -19 -136 -8 -26 -12 -49 -9 -52 3 -4 1 -6
-5 -6 -5 0 -9 -10 -8 -22 1 -13 -4 -37 -12 -55 -17 -42 -17 -51 5 -56 9 -2
-33 -3 -94 -3 -107 1 -111 2 -91 19 11 9 15 17 9 17 -17 0 -1 40 17 41 9 0 11
3 5 5 -15 6 -6 44 10 44 6 0 4 5 -4 10 -8 5 -10 10 -5 10 6 0 12 9 13 20 4 44
6 50 14 50 5 0 7 4 3 9 -3 5 0 13 6 17 8 4 7 9 -2 15 -11 7 -11 9 -1 9 7 0 10
5 7 10 -3 6 4 10 17 11 22 0 22 1 3 9 -19 8 -18 9 5 11 25 2 25 2 2 6 -21 4
-22 6 -9 26 8 12 13 30 11 40 -2 15 7 17 80 17 l83 0 -5 -30z m1218 -20 c0
-24 -25 -31 -100 -27 -49 2 -55 5 -58 25 -3 21 -1 22 77 22 74 0 81 -2 81 -20z
m1208 -6 c2 -16 -3 -23 -22 -26 -14 -3 -30 -2 -37 3 -7 4 -22 4 -33 0 -30 -11
-56 -2 -56 18 0 27 7 29 78 28 60 -2 67 -4 70 -23z m-793 -14 c3 -6 -1 -7 -9
-4 -18 7 -21 14 -7 14 6 0 13 -4 16 -10z m2020 2 l-20 -5 20 -8 c12 -4 -14 -7
-65 -6 -84 1 -84 1 -20 6 l65 5 -70 6 -70 6 90 1 c50 0 81 -2 70 -5z m-5596
-20 c12 -23 -8 -50 -37 -48 -12 0 -22 4 -22 9 0 4 0 18 0 32 0 20 5 25 25 25
13 0 29 -8 34 -18z m1234 -8 c-4 -43 -22 -74 -43 -74 -11 0 -23 7 -26 15 -6
14 -8 14 -18 -1 -17 -22 -50 -14 -54 14 -2 12 1 22 7 22 6 0 11 8 11 18 0 28
8 31 69 29 50 -2 56 -4 54 -23z m1754 12 c3 -2 0 -13 -6 -24 -11 -20 -51 -20
-51 -1 0 21 -17 6 -33 -27 -13 -27 -22 -35 -40 -32 -26 4 -38 48 -13 48 9 0
16 8 16 19 0 11 5 21 12 23 14 5 109 0 115 -6z m1533 -22 c0 -29 -36 -33 -56
-6 -13 16 -13 16 -14 0 0 -23 -45 -24 -54 -2 -11 30 -6 33 59 32 62 0 65 -1
65 -24z m1050 -4 l-55 -7 55 -2 c41 -2 50 -5 35 -11 -19 -8 -18 -9 4 -9 19 -1
21 -4 12 -15 -10 -11 -8 -15 6 -19 10 -3 -21 -5 -69 -6 -78 -1 -88 1 -88 17 0
9 -3 27 -6 40 -6 22 -5 22 77 20 80 -1 82 -2 29 -8z m-5647 -29 c3 -14 11 -17
31 -14 30 6 29 1 -11 -74 -13 -24 -23 -51 -23 -59 0 -15 -12 -34 -42 -62 -10
-9 -18 -21 -18 -27 0 -6 -28 -10 -69 -10 -38 0 -67 3 -64 8 2 4 16 8 31 8 24
1 23 3 -8 9 -31 7 -32 7 -7 9 26 1 39 20 15 22 -10 0 -10 2 0 6 6 2 9 9 6 15
-4 5 3 5 16 -2 12 -6 24 -9 28 -6 3 3 1 6 -5 6 -16 0 -10 32 10 52 10 10 15
23 12 28 -4 6 3 10 14 10 12 0 21 5 21 10 0 6 -8 10 -17 10 -14 0 -14 3 5 20
12 11 25 20 30 20 6 0 12 9 15 20 7 25 23 26 30 1z m1083 -7 c-5 -17 -3 -23 4
-19 5 3 10 15 10 26 0 14 7 19 30 19 17 0 30 -4 30 -9 0 -17 -24 -76 -33 -82
-16 -11 -47 2 -47 19 0 13 -3 12 -15 -5 -17 -24 -52 -21 -58 6 -2 9 -9 -2 -17
-26 -11 -37 -17 -43 -42 -43 -23 0 -28 4 -28 25 0 14 5 25 10 25 6 0 10 12 10
26 0 24 3 26 43 22 37 -3 42 0 45 20 3 17 10 22 34 22 27 0 30 -2 24 -26z
m1812 4 c-2 -17 -10 -23 -28 -23 -18 0 -26 6 -28 23 -3 19 1 22 28 22 27 0 31
-3 28 -22z m1842 -14 c0 -14 5 -24 13 -23 6 1 31 1 55 0 39 -1 43 -3 37 -21
-9 -28 3 -44 21 -29 22 18 64 3 61 -24 -2 -19 3 -22 38 -22 35 0 40 -3 39 -22
-1 -24 4 -26 49 -23 21 1 30 -4 34 -19 4 -15 13 -20 32 -20 44 3 51 0 51 -21
0 -16 -7 -20 -30 -20 -22 0 -30 5 -30 18 -1 16 -1 16 -11 0 -12 -21 -55 -24
-63 -5 -5 10 -7 10 -12 0 -3 -7 -16 -13 -29 -13 -19 0 -26 8 -34 38 -6 20 -11
46 -11 57 -1 19 -1 19 -14 3 -7 -10 -23 -18 -34 -18 -16 0 -23 8 -28 35 -6 31
-24 50 -24 25 0 -5 -11 -10 -24 -10 -24 0 -36 16 -36 51 0 10 -4 19 -10 19 -5
0 -10 -4 -10 -10 0 -5 -11 -10 -25 -10 -14 0 -25 4 -25 8 0 5 -11 22 -25 38
-14 16 -25 24 -25 19 0 -6 -9 -16 -20 -23 -18 -11 -22 -10 -29 10 -5 13 -7 26
-5 30 2 3 31 7 64 7 57 0 60 -1 60 -25z m-3840 -18 c0 -23 -11 -46 -20 -41 -5
3 -6 -5 -3 -17 4 -19 3 -20 -6 -8 -9 13 -11 13 -11 -2 0 -11 -8 -18 -20 -18
-12 0 -20 7 -20 18 -1 9 -10 -4 -21 -29 -17 -40 -24 -45 -45 -41 -13 2 -24 11
-24 21 -1 14 -2 14 -11 -1 -5 -10 -21 -18 -34 -18 -14 0 -25 7 -28 18 -3 11
-10 2 -25 -30 -22 -49 -41 -55 -68 -21 -10 11 -12 10 -17 -6 -3 -14 -11 -17
-31 -14 -14 3 -26 10 -26 16 0 5 -10 -1 -22 -16 -23 -25 -25 -25 -160 -25
-130 0 -138 1 -138 19 0 17 7 19 73 18 97 -1 94 -2 100 21 5 18 13 20 74 19
93 -1 91 -2 95 24 3 20 10 23 71 27 37 3 67 2 67 -2 0 -17 29 6 32 25 3 20 9
22 77 22 57 0 75 4 79 15 2 8 5 21 7 28 6 17 55 16 55 -2z m1848 -10 c2 -10 1
-33 -2 -51 -6 -28 -10 -32 -31 -27 -14 2 -25 8 -25 13 0 5 -4 9 -9 9 -6 0 -11
-15 -13 -32 -2 -28 -8 -34 -30 -36 -21 -3 -28 1 -28 15 -1 30 -16 -6 -24 -54
l-6 -43 37 0 c25 0 33 -3 25 -9 -8 -4 -33 -4 -58 0 -24 5 -51 6 -61 2 -11 -4
-14 -3 -9 5 4 7 2 12 -3 12 -6 0 -11 -5 -11 -11 0 -6 -23 -9 -62 -7 -55 3 -63
6 -63 23 0 17 7 20 40 20 33 0 40 3 40 20 0 17 7 20 40 21 36 0 40 3 43 28 3
25 7 27 40 24 32 -2 37 0 35 17 -2 26 16 36 50 29 24 -5 27 -3 27 19 0 37 52
48 58 13z m70 -3 c-4 -36 -43 -45 -53 -12 -8 23 7 39 38 39 14 0 18 -6 15 -27z
m3762 -18 c0 -14 5 -25 11 -25 6 0 9 -10 7 -22 -2 -17 -10 -23 -26 -23 -19 0
-27 9 -38 40 -19 54 -18 55 16 55 25 0 30 -4 30 -25z m103 -2 c-2 -13 3 -23
10 -24 6 0 44 -1 82 -2 64 -2 70 -4 73 -24 3 -18 11 -22 45 -25 35 -2 43 -7
45 -25 2 -13 7 -23 11 -23 5 0 6 11 3 25 -4 22 -1 25 27 25 26 0 31 -4 31 -25
0 -28 -3 -27 97 -26 60 1 72 -2 75 -16 3 -15 15 -17 83 -18 75 0 80 -1 83 -22
3 -20 -1 -23 -27 -23 -18 0 -31 5 -31 12 0 9 -3 9 -12 0 -16 -16 -55 -15 -62
1 -5 10 -7 10 -12 0 -7 -16 -46 -17 -62 -1 -9 9 -12 9 -12 0 0 -7 -13 -12 -29
-12 -22 0 -31 6 -41 29 -11 27 -14 28 -43 20 -17 -5 -35 -5 -41 0 -6 5 -20 5
-31 0 -31 -12 -33 -11 -54 29 -16 30 -21 34 -26 20 -4 -10 -18 -18 -31 -18
-16 0 -24 6 -24 18 -1 16 -1 16 -14 0 -22 -30 -51 -22 -65 17 -11 32 -31 48
-31 25 0 -5 -9 -10 -20 -10 -14 0 -20 7 -20 23 0 16 -3 18 -9 9 -6 -10 -10 -7
-15 11 -3 14 -9 33 -12 42 -6 14 -1 16 27 13 29 -2 34 -7 32 -25z m-963 13 c0
-2 3 -11 6 -20 5 -14 -5 -16 -79 -16 -80 0 -86 1 -84 20 1 18 8 20 79 20 43 0
78 -2 78 -4z m-17 -53 c-23 -2 -64 -2 -90 0 -26 2 -7 3 42 3 50 0 71 -1 48 -3z
m37 -23 c0 -5 -8 -10 -17 -11 -12 -1 -10 -4 7 -9 17 -5 -4 -8 -63 -9 -57 -1
-86 3 -82 9 3 6 1 10 -4 10 -6 0 -11 5 -11 10 0 6 35 10 85 10 50 0 85 -4 85
-10z m1873 -7 c-13 -2 -35 -2 -50 0 -16 2 -5 4 22 4 28 0 40 -2 28 -4z m-4153
-40 c-25 -18 -38 -10 -21 11 7 8 19 12 27 9 12 -4 11 -8 -6 -20z m468 13 c-7
-8 -15 -12 -17 -11 -5 6 10 25 20 25 5 0 4 -6 -3 -14z m239 -8 c-3 -8 -6 -5
-6 6 -1 11 2 17 5 13 3 -3 4 -12 1 -19z m-470 6 c-3 -3 -12 -4 -19 -1 -8 3 -5
6 6 6 11 1 17 -2 13 -5z m53 -6 c0 -15 -20 -48 -20 -34 0 5 -7 3 -15 -4 -18
-15 -21 1 -5 31 12 21 40 26 40 7z m294 -16 c-4 -10 -3 -13 3 -6 11 14 53 25
53 13 0 -5 -4 -9 -10 -9 -5 0 -7 -6 -5 -12 3 -7 1 -20 -5 -28 -8 -13 -11 -13
-22 -1 -10 10 -10 12 0 7 6 -4 12 -2 12 3 0 14 -13 14 -28 -1 -9 -9 -12 -4
-12 26 0 21 4 35 10 31 5 -3 7 -13 4 -23z m-3217 -44 c-2 -13 -4 -3 -4 22 0
25 2 35 4 23 2 -13 2 -33 0 -45z m3057 51 c-4 -7 -7 -26 -7 -43 0 -17 -2 -24
-4 -15 -3 11 -11 15 -24 12 -16 -4 -19 0 -19 26 0 28 3 31 31 31 20 0 28 -4
23 -11z m1866 1 c-12 -7 -12 -10 -1 -10 7 0 11 -6 7 -15 -3 -8 0 -15 7 -16 7
-1 1 -5 -13 -9 l-25 -8 28 -1 c15 -1 27 -5 27 -11 0 -6 -35 -10 -85 -10 -50 0
-85 4 -85 10 0 6 12 11 28 11 l27 1 -29 7 c-21 4 -32 14 -37 34 l-7 27 86 0
c60 0 82 -3 72 -10z m1858 -7 c-10 -2 -26 -2 -35 0 -10 3 -2 5 17 5 19 0 27
-2 18 -5z m-911 -60 c-3 -10 -5 -2 -5 17 0 19 2 27 5 18 2 -10 2 -26 0 -35z
m-3130 5 c-3 -8 -6 -5 -6 6 -1 11 2 17 5 13 3 -3 4 -12 1 -19z m587 6 c3 -8 2
-12 -4 -9 -6 3 -10 10 -10 16 0 14 7 11 14 -7z m3519 -1 c-18 -2 -48 -2 -65 0
-18 2 -4 4 32 4 36 0 50 -2 33 -4z m-4226 -9 c-3 -3 -12 -4 -19 -1 -8 3 -5 6
6 6 11 1 17 -2 13 -5z m-2064 -11 c-7 -2 -19 -2 -25 0 -7 3 -2 5 12 5 14 0 19
-2 13 -5z m274 1 c-3 -3 -12 -4 -19 -1 -8 3 -5 6 6 6 11 1 17 -2 13 -5z m46
-1 c-7 -2 -19 -2 -25 0 -7 3 -2 5 12 5 14 0 19 -2 13 -5z m287 -3 c0 -5 -2
-10 -4 -10 -3 0 -8 5 -11 10 -3 6 -1 10 4 10 6 0 11 -4 11 -10z m76 0 c-18 -6
-66 -2 -66 6 0 1 19 2 43 2 28 0 36 -3 23 -8z m247 3 c-7 -2 -19 -2 -25 0 -7
3 -2 5 12 5 14 0 19 -2 13 -5z m500 0 c-7 -2 -21 -2 -30 0 -10 3 -4 5 12 5 17
0 24 -2 18 -5z m120 0 c-7 -2 -21 -2 -30 0 -10 3 -4 5 12 5 17 0 24 -2 18 -5z
m434 1 c-3 -3 -12 -4 -19 -1 -8 3 -5 6 6 6 11 1 17 -2 13 -5z m-5097 -19 c0
-8 -4 -15 -9 -15 -13 0 -22 16 -14 24 11 11 23 6 23 -9z m211 -14 c-25 -28
-40 -25 -41 8 0 10 3 11 14 2 10 -9 15 -8 20 4 3 8 12 15 20 15 9 0 5 -10 -13
-29z m99 8 c-7 -11 -14 -19 -16 -16 -7 7 7 37 17 37 6 0 5 -9 -1 -21z m90 -40
c0 -5 -4 -9 -10 -9 -9 0 -40 52 -40 67 1 11 50 -46 50 -58z m35 50 c4 -6 12
-8 19 -6 6 2 22 7 36 11 20 6 18 3 -9 -14 l-34 -21 -21 20 c-11 12 -15 21 -9
21 7 0 15 -5 18 -11z m-151 -24 c6 -23 -7 -65 -19 -65 -3 0 -5 20 -5 45 0 49
14 60 24 20z m3369 5 c3 -11 1 -18 -4 -14 -5 3 -9 12 -9 20 0 20 7 17 13 -6z
m977 10 c0 -5 -2 -10 -4 -10 -3 0 -8 5 -11 10 -3 6 -1 10 4 10 6 0 11 -4 11
-10z m-260 -10 c0 -5 -5 -10 -11 -10 -5 0 -7 5 -4 10 3 6 8 10 11 10 2 0 4 -4
4 -10z m-1320 -4 c0 -3 -4 -8 -10 -11 -5 -3 -10 -1 -10 4 0 6 5 11 10 11 6 0
10 -2 10 -4z m6530 -11 c0 -8 -7 -15 -15 -15 -8 0 -15 7 -15 15 0 8 7 15 15
15 8 0 15 -7 15 -15z m-9240 -39 c0 -8 -7 -16 -15 -20 -17 -6 -18 -4 -9 18 8
20 24 21 24 2z"/>
<path d="M4543 4394 c-24 -27 -26 -36 -17 -71 9 -32 32 -37 26 -6 -3 17 -1 24
6 19 10 -6 91 59 82 67 -3 2 -21 7 -40 10 -29 6 -39 2 -57 -19z"/>
<path d="M3960 4229 c0 -5 11 -9 25 -9 14 0 25 2 25 4 0 2 -11 6 -25 8 -14 3
-25 1 -25 -3z"/>
<path d="M2138 4193 c7 -3 16 -2 19 1 4 3 -2 6 -13 5 -11 0 -14 -3 -6 -6z"/>
<path d="M4378 4193 c7 -3 16 -2 19 1 4 3 -2 6 -13 5 -11 0 -14 -3 -6 -6z"/>
<path d="M1270 4066 c13 -17 58 -27 66 -15 3 5 -7 9 -21 9 -14 0 -24 4 -21 8
2 4 -4 9 -15 9 -16 2 -18 -1 -9 -11z"/>
<path d="M980 4036 c0 -11 12 -15 40 -14 33 0 38 3 29 14 -15 19 -69 18 -69 0z"/>
<path d="M2143 4033 c9 -2 23 -2 30 0 6 3 -1 5 -18 5 -16 0 -22 -2 -12 -5z"/>
<path d="M7183 4379 c-7 -7 -13 -22 -13 -33 0 -19 1 -19 16 -4 9 8 14 23 12
32 -2 14 -5 15 -15 5z"/>
<path d="M6640 4339 c0 -11 25 -22 39 -17 6 1 -1 8 -14 15 -14 6 -25 7 -25 2z"/>
<path d="M6700 4313 c0 -14 67 -43 100 -43 37 0 48 17 17 29 -39 15 -117 24
-117 14z"/>
<path d="M6891 4236 c-10 -12 -8 -13 8 -9 12 3 21 9 21 14 0 14 -16 11 -29 -5z"/>
<path d="M8975 4148 c11 -7 22 -11 24 -9 2 1 7 -3 11 -9 5 -8 13 -9 21 -4 8 5
37 14 64 20 50 12 49 12 -45 13 -77 0 -91 -2 -75 -11z"/>
<path d="M5750 4130 c8 -5 24 -10 35 -10 11 0 27 5 35 10 11 7 1 10 -35 10
-36 0 -46 -3 -35 -10z"/>
<path d="M4300 1270 c0 -5 5 -10 10 -10 6 0 10 5 10 10 0 6 -4 10 -10 10 -5 0
-10 -4 -10 -10z"/>
<path d="M4178 1203 c7 -3 16 -2 19 1 4 3 -2 6 -13 5 -11 0 -14 -3 -6 -6z"/>
<path d="M1918 1162 c-21 -15 -38 -30 -38 -33 0 -3 14 -6 32 -7 17 0 34 -6 38
-12 6 -9 9 -9 15 -1 4 7 2 17 -4 24 -6 8 -6 18 -1 27 24 38 8 38 -42 2z"/>
<path d="M3788 973 c7 -3 16 -2 19 1 4 3 -2 6 -13 5 -11 0 -14 -3 -6 -6z"/>
<path d="M8060 743 c0 -12 5 -25 10 -28 13 -8 13 15 0 35 -8 12 -10 11 -10 -7z"/>
<path d="M3728 773 c7 -3 16 -2 19 1 4 3 -2 6 -13 5 -11 0 -14 -3 -6 -6z"/>
<path d="M1831 767 c-9 -11 -8 -17 4 -27 12 -10 16 -9 21 5 9 23 -10 40 -25
22z"/>
<path d="M3037 764 c-4 -4 -7 -14 -7 -23 0 -11 3 -12 11 -4 6 6 10 16 7 23 -2
6 -7 8 -11 4z"/>
<path d="M1785 660 c-3 -5 -1 -10 4 -10 6 0 11 5 11 10 0 6 -2 10 -4 10 -3 0
-8 -4 -11 -10z"/>
<path d="M2360 560 c0 -5 5 -10 10 -10 6 0 10 5 10 10 0 6 -4 10 -10 10 -5 0
-10 -4 -10 -10z"/>
<path d="M8565 601 c-3 -5 -1 -12 5 -16 5 -3 10 1 10 9 0 18 -6 21 -15 7z"/>
<path d="M11127 4063 c-14 -13 -6 -23 18 -23 16 0 25 6 25 15 0 15 -31 21 -43
8z"/>
<path d="M3193 417 c-8 -16 -20 -27 -33 -27 l-20 0 20 -20 c11 -11 32 -20 47
-20 14 0 23 3 20 7 -4 3 0 15 10 25 15 17 15 18 -5 18 -14 0 -22 7 -24 22 -3
21 -4 21 -15 -5z"/>
<path d="M885 420 c-3 -5 -2 -10 4 -10 5 0 13 5 16 10 3 6 2 10 -4 10 -5 0
-13 -4 -16 -10z"/>
<path d="M2870 419 c0 -5 5 -7 10 -4 6 3 10 8 10 11 0 2 -4 4 -10 4 -5 0 -10
-5 -10 -11z"/>
<path d="M2123 400 c-18 -27 -17 -30 12 -30 28 0 31 8 13 33 -12 16 -14 16
-25 -3z"/>
<path d="M2920 411 c0 -5 5 -13 10 -16 6 -3 10 -2 10 4 0 5 -4 13 -10 16 -5 3
-10 2 -10 -4z"/>
<path d="M6800 397 c0 -20 4 -24 20 -20 25 7 23 36 -3 41 -12 3 -17 -3 -17
-21z"/>
<path d="M8230 410 c-9 -6 -10 -10 -3 -10 6 0 15 5 18 10 8 12 4 12 -15 0z"/>
<path d="M945 400 c3 -5 8 -10 11 -10 2 0 4 5 4 10 0 6 -5 10 -11 10 -5 0 -7
-4 -4 -10z"/>
<path d="M2290 383 c0 -27 4 -33 20 -33 17 0 19 3 11 18 -27 46 -31 48 -31 15z"/>
<path d="M3850 400 c0 -5 5 -10 11 -10 5 0 7 5 4 10 -3 6 -8 10 -11 10 -2 0
-4 -4 -4 -10z"/>
<path d="M7993 375 c0 -22 2 -30 4 -17 2 12 2 30 0 40 -3 9 -5 -1 -4 -23z"/>
<path d="M10180 400 c-13 -8 -12 -10 3 -10 9 0 17 5 17 10 0 12 -1 12 -20 0z"/>
<path d="M1410 379 c0 -18 6 -28 20 -32 25 -6 25 1 0 33 l-20 25 0 -26z"/>
<path d="M5520 384 c0 -8 5 -12 10 -9 6 4 8 11 5 16 -9 14 -15 11 -15 -7z"/>
<path d="M5634 386 c-6 -17 2 -36 17 -36 12 0 12 37 -1 45 -6 3 -13 -1 -16 -9z"/>
<path d="M8270 390 c0 -5 7 -10 16 -10 8 0 12 5 9 10 -3 6 -10 10 -16 10 -5 0
-9 -4 -9 -10z"/>
<path d="M8783 382 c-9 -15 -14 -15 -33 -4 -20 12 -21 11 -18 -14 2 -15 8 -29
14 -31 12 -4 60 54 52 62 -2 2 -9 -4 -15 -13z"/>
<path d="M887 384 c-4 -4 -4 -10 -1 -15 6 -10 34 0 34 12 0 10 -24 12 -33 3z"/>
<path d="M2870 380 c0 -5 7 -10 15 -10 8 0 15 5 15 10 0 6 -7 10 -15 10 -8 0
-15 -4 -15 -10z"/>
<path d="M6960 365 c0 -16 6 -25 15 -25 9 0 15 9 15 25 0 16 -6 25 -15 25 -9
0 -15 -9 -15 -25z"/>
<path d="M7357 383 c-13 -12 -7 -43 8 -43 9 0 15 9 15 25 0 24 -10 32 -23 18z"/>
<path d="M7586 383 c-12 -12 -6 -43 9 -43 8 0 15 9 15 19 0 21 -13 34 -24 24z"/>
<path d="M7690 366 c0 -17 5 -26 16 -26 10 0 14 7 12 22 -5 32 -28 35 -28 4z"/>
<path d="M8836 363 l-39 -28 38 -3 c44 -4 47 -2 43 32 l-3 26 -39 -27z"/>
<path d="M10235 380 c3 -5 8 -10 11 -10 2 0 4 5 4 10 0 6 -5 10 -11 10 -5 0
-7 -4 -4 -10z"/>
<path d="M3466 371 c-4 -7 -5 -15 -2 -18 9 -9 19 4 14 18 -4 11 -6 11 -12 0z"/>
<path d="M3606 365 c-3 -9 0 -15 9 -15 8 0 15 7 15 15 0 8 -4 15 -9 15 -5 0
-11 -7 -15 -15z"/>
<path d="M4110 364 c0 -8 5 -12 10 -9 6 3 10 10 10 16 0 5 -4 9 -10 9 -5 0
-10 -7 -10 -16z"/>
<path d="M4205 369 c-4 -6 -5 -13 -2 -16 7 -7 27 6 27 18 0 12 -17 12 -25 -2z"/>
<path d="M4306 371 c-4 -7 -5 -15 -2 -18 9 -9 19 4 14 18 -4 11 -6 11 -12 0z"/>
<path d="M4526 371 c-4 -7 -5 -15 -2 -18 9 -9 19 4 14 18 -4 11 -6 11 -12 0z"/>
<path d="M8227 374 c-9 -10 2 -24 19 -24 8 0 14 7 14 15 0 15 -21 21 -33 9z"/>
<path d="M10752 364 c-14 -24 -3 -54 19 -54 24 0 36 27 22 48 -14 23 -30 25
-41 6z"/>
<path d="M10832 364 c-15 -27 -3 -56 22 -52 29 4 34 43 7 57 -16 9 -22 8 -29
-5z"/>
<path d="M945 360 c-3 -5 -1 -10 4 -10 6 0 11 5 11 10 0 6 -2 10 -4 10 -3 0
-8 -4 -11 -10z"/>
<path d="M9072 353 c5 -25 28 -28 28 -4 0 12 -6 21 -16 21 -9 0 -14 -7 -12
-17z"/>
<path d="M9425 360 c-3 -5 3 -10 15 -10 12 0 18 5 15 10 -3 6 -10 10 -15 10
-5 0 -12 -4 -15 -10z"/>
<path d="M9540 356 c-8 -10 -10 -20 -4 -26 14 -14 32 3 25 23 -6 17 -8 18 -21
3z"/>
<path d="M10187 364 c-8 -8 1 -24 13 -24 4 0 10 7 14 15 5 15 -14 21 -27 9z"/>
<path d="M10963 354 c-7 -20 22 -45 44 -37 8 3 13 15 11 27 -4 27 -45 35 -55
10z"/>
<path d="M5258 353 c7 -3 16 -2 19 1 4 3 -2 6 -13 5 -11 0 -14 -3 -6 -6z"/>
<path d="M10245 340 c-3 -5 -1 -10 4 -10 6 0 11 5 11 10 0 6 -2 10 -4 10 -3 0
-8 -4 -11 -10z"/>
<path d="M10493 123 c-7 -3 -13 -11 -13 -19 0 -8 -8 -18 -17 -22 -14 -5 -12
-8 12 -12 36 -7 55 -2 55 14 0 19 -24 44 -37 39z"/>
<path d="M10623 104 c-13 -12 -23 -26 -23 -32 0 -18 -22 -26 -31 -11 -6 10 -9
2 -9 -23 0 -34 3 -38 25 -38 15 0 25 6 25 15 0 8 13 27 28 42 24 23 27 31 18
48 -11 20 -11 20 -33 -1z"/>
<path d="M11177 111 c-5 -22 1 -33 14 -25 12 7 12 44 0 44 -5 0 -11 -9 -14
-19z"/>
<path d="M9980 110 c-14 -3 -26 -14 -28 -23 -4 -19 13 -23 23 -6 4 6 16 14 28
18 27 10 9 20 -23 11z"/>
<path d="M10930 105 c-6 -8 -9 -19 -5 -25 3 -5 1 -10 -4 -10 -6 0 -11 -4 -11
-10 0 -5 6 -10 14 -10 8 0 18 -10 21 -21 6 -17 9 -18 16 -8 6 11 9 10 15 -4 5
-15 21 -17 115 -17 83 0 109 3 109 13 0 23 -22 36 -51 30 -19 -3 -29 -1 -29 6
0 7 -3 10 -8 7 -13 -8 -40 19 -39 40 1 13 -5 20 -20 22 -18 3 -23 -2 -23 -18
0 -12 4 -19 9 -15 17 10 24 -16 9 -31 -12 -12 -20 -12 -53 -1 l-38 13 23 17
c27 19 26 22 -11 30 -18 5 -31 2 -39 -8z"/>
<path d="M11135 110 c-3 -5 -1 -10 4 -10 6 0 11 5 11 10 0 6 -2 10 -4 10 -3 0
-8 -4 -11 -10z"/>
<path d="M8278 103 c6 -2 18 -2 25 0 6 3 1 5 -13 5 -14 0 -19 -2 -12 -5z"/>
<path d="M8480 99 c0 -5 5 -7 10 -4 6 3 10 8 10 11 0 2 -4 4 -10 4 -5 0 -10
-5 -10 -11z"/>
<path d="M9859 108 c-6 -12 -5 -48 1 -48 8 0 20 25 20 41 0 8 -18 13 -21 7z"/>
<path d="M9590 90 c20 -13 50 -13 50 0 0 6 -15 10 -32 10 -25 0 -29 -3 -18
-10z"/>
<path d="M10844 85 c-23 -17 -48 -20 -38 -3 4 7 3 8 -4 4 -6 -4 -9 -13 -5 -22
3 -8 -2 -21 -12 -28 -27 -20 -9 -36 38 -35 34 1 37 2 17 8 -39 11 -37 37 4 56
20 10 36 21 36 26 0 13 -14 11 -36 -6z"/>
<path d="M8930 76 c0 -19 14 -28 34 -20 25 10 19 34 -9 34 -15 0 -25 -6 -25
-14z"/>
<path d="M10190 80 c0 -5 5 -10 10 -10 6 0 10 5 10 10 0 6 -4 10 -10 10 -5 0
-10 -4 -10 -10z"/>
<path d="M10715 81 c-3 -5 -1 -12 5 -16 12 -7 30 2 30 16 0 12 -27 12 -35 0z"/>
<path d="M9070 64 c0 -8 5 -12 10 -9 6 4 8 11 5 16 -9 14 -15 11 -15 -7z"/>
<path d="M10368 63 c-31 -34 -47 -43 -72 -43 -14 0 -28 -4 -31 -10 -4 -6 12
-10 39 -10 25 0 46 5 46 10 0 6 6 10 14 10 8 0 19 14 25 30 11 34 3 39 -21 13z"/>
<path d="M9479 48 c4 -13 6 -29 4 -35 -3 -7 3 -13 12 -13 12 0 14 4 5 19 -5
11 -7 27 -4 35 4 10 1 16 -10 16 -12 0 -14 -5 -7 -22z"/>
<path d="M9780 51 c0 -11 -3 -26 -6 -35 -5 -14 6 -16 89 -16 l94 0 -5 25 c-4
23 -32 37 -32 16 0 -32 -74 -15 -84 19 -2 9 -4 6 -5 -7 -1 -24 -16 -37 -31
-28 -7 4 -7 13 0 26 9 15 7 19 -5 19 -8 0 -15 -9 -15 -19z"/>
<path d="M9265 39 c-8 -11 6 -39 19 -39 15 1 46 25 46 36 0 11 -59 14 -65 3z"/>
<path d="M9575 40 c-4 -6 5 -10 19 -10 14 0 26 5 26 10 0 6 -9 10 -19 10 -11
0 -23 -4 -26 -10z"/>
<path d="M8786 32 c-15 -14 -3 -29 23 -30 21 0 28 3 25 13 -6 14 -39 26 -48
17z"/>
<path d="M8880 30 c0 -5 5 -10 10 -10 6 0 10 5 10 10 0 6 -4 10 -10 10 -5 0
-10 -4 -10 -10z"/>
<path d="M10070 16 c0 -9 5 -16 10 -16 6 0 10 4 10 9 0 6 -4 13 -10 16 -5 3
-10 -1 -10 -9z"/>
<path d="M10631 16 c-12 -14 -7 -16 38 -15 33 1 50 6 48 13 -6 18 -72 19 -86
2z"/>
<path d="M8515 10 c-3 -5 1 -10 10 -10 9 0 13 5 10 10 -3 6 -8 10 -10 10 -2 0
-7 -4 -10 -10z"/>
<path d="M10425 10 c-4 -6 11 -10 37 -9 33 0 38 2 23 9 -28 12 -53 12 -60 0z"/>
<path d="M10895 10 c-4 -6 6 -10 22 -10 22 0 25 2 13 10 -19 12 -27 12 -35 0z"/>
<path d="M9178 3 c6 -2 18 -2 25 0 6 3 1 5 -13 5 -14 0 -19 -2 -12 -5z"/>
<path d="M10173 3 c9 -2 23 -2 30 0 6 3 -1 5 -18 5 -16 0 -22 -2 -12 -5z"/>
</g>
</svg>
