<?xml version="1.0" standalone="no"?>
<!DOCTYPE svg PUBLIC "-//W3C//DTD SVG 20010904//EN"
 "http://www.w3.org/TR/2001/REC-SVG-20010904/DTD/svg10.dtd">
<svg version="1.0" xmlns="http://www.w3.org/2000/svg"
 width="650.000000pt" height="650.000000pt" viewBox="0 0 650.000000 650.000000"
 preserveAspectRatio="xMidYMid meet">

<g transform="translate(0.000000,650.000000) scale(0.100000,-0.100000)"
fill="#000000" stroke="none">
<path d="M2855 5959 c-172 -20 -395 -68 -520 -111 -16 -5 -48 -14 -70 -19 -22
-6 -44 -14 -49 -20 -6 -5 -17 -9 -26 -9 -21 0 -177 -67 -295 -126 -471 -238
-860 -606 -1124 -1066 -257 -448 -387 -1002 -352 -1500 49 -682 318 -1276 791
-1748 424 -423 963 -688 1574 -775 601 -86 1286 60 1806 385 446 278 778 644
1010 1115 255 516 336 1075 239 1647 -43 255 -116 473 -244 733 -400 814
-1183 1370 -2090 1485 -170 21 -508 26 -650 9z m419 -169 c304 -35 374 -45
491 -75 476 -122 854 -338 1175 -671 378 -392 595 -839 682 -1404 20 -133 17
-569 -6 -695 -98 -553 -315 -993 -674 -1366 -314 -328 -734 -576 -1166 -690
-522 -138 -1071 -105 -1576 93 -133 53 -329 156 -459 243 -592 397 -974 1000
-1088 1718 -25 160 -25 547 0 707 147 939 741 1659 1642 1991 176 65 437 119
685 143 189 18 188 18 294 6z"/>
<path d="M2902 5669 c-9 -4 -20 -5 -25 -2 -4 2 -31 0 -60 -6 -28 -6 -68 -13
-89 -15 -46 -7 -239 -59 -343 -93 -282 -91 -502 -211 -745 -405 -280 -224
-464 -446 -628 -758 -270 -512 -337 -1177 -176 -1738 157 -547 498 -1017 964
-1332 235 -158 540 -290 807 -349 267 -59 625 -72 878 -33 157 25 317 63 383
92 25 11 50 20 58 20 36 0 241 94 389 178 656 374 1108 1056 1190 1792 53 481
-23 933 -225 1345 -235 480 -601 840 -1101 1083 -125 61 -266 116 -352 137
-34 9 -73 20 -87 25 -26 10 -34 11 -165 35 -118 21 -278 35 -290 24 -13 -13
-175 -12 -175 1 0 12 -177 10 -208 -1z m554 -164 c149 -76 166 -283 30 -366
-17 -10 -39 -19 -48 -19 -10 0 -18 -2 -18 -6 0 -3 25 -43 55 -89 30 -45 55
-92 55 -104 0 -29 -30 -42 -86 -36 -55 5 -55 5 -141 143 -61 99 -59 98 -144
86 l-45 -6 1 -82 c0 -112 -2 -116 -70 -116 -51 0 -56 2 -66 26 -10 28 -12 534
-2 561 10 27 46 32 239 32 184 1 192 0 240 -24z m-779 -312 c230 -235 250
-263 201 -282 -75 -28 -84 -26 -146 33 l-59 56 -74 -33 c-41 -18 -94 -39 -117
-47 -51 -16 -62 -37 -62 -111 0 -70 -43 -107 -111 -97 -21 3 -24 10 -27 48 -4
49 25 548 34 593 5 22 16 33 47 47 80 36 72 41 314 -207z m1303 192 c16 -8 31
-23 35 -34 7 -22 -198 -520 -221 -538 -12 -9 -25 -8 -56 1 -59 16 -67 34 -44
98 18 52 179 435 198 471 11 21 49 22 88 2z m-2006 -239 c82 -34 145 -122 146
-202 0 -66 -17 -98 -116 -217 -51 -62 -94 -117 -94 -123 0 -6 23 -31 50 -56
59 -54 64 -81 21 -122 -26 -25 -33 -27 -59 -18 -31 11 -34 12 -176 136 -323
280 -304 253 -234 333 124 144 223 243 261 262 50 24 151 28 201 7z m2489 -19
c99 -44 247 -204 247 -266 0 -36 -31 -61 -76 -61 -27 0 -38 8 -69 50 -45 61
-126 135 -177 161 -40 21 -78 13 -78 -15 0 -22 48 -87 121 -163 87 -89 124
-165 115 -230 -13 -96 -65 -141 -173 -150 -61 -5 -75 -3 -123 22 -84 42 -158
111 -218 203 -61 93 -62 116 -11 154 41 31 73 16 116 -55 46 -76 85 -121 137
-156 73 -50 126 -51 126 -2 0 33 -16 57 -101 149 -72 77 -129 176 -129 224 0
60 46 126 108 155 38 18 117 9 185 -20z m-1205 -338 c309 -33 550 -125 777
-295 371 -278 585 -710 585 -1180 0 -520 -263 -995 -699 -1264 -145 -89 -277
-142 -461 -186 -155 -38 -408 -44 -575 -16 -480 82 -869 369 -1083 797 -181
364 -206 777 -70 1165 125 354 414 672 758 834 209 97 351 131 653 155 10 0
61 -4 115 -10z m1390 -2641 c37 -34 70 -66 74 -72 12 -18 -5 -36 -36 -36 -51
0 -136 -12 -136 -19 0 -4 16 -24 35 -45 39 -43 41 -49 20 -66 -20 -17 -25 -14
-104 63 -60 59 -69 72 -60 88 8 15 22 19 67 20 31 1 67 4 80 7 23 7 23 7 -12
41 -34 33 -44 59 -29 74 15 16 37 4 101 -55z m-2862 9 c47 -47 65 -94 43 -108
-22 -14 -26 -11 -59 36 -32 47 -64 70 -80 60 -19 -12 -10 -41 21 -71 36 -34
59 -74 59 -104 0 -34 -44 -70 -85 -70 -56 0 -84 18 -129 85 -49 72 -20 126 31
57 65 -89 103 -113 117 -75 5 11 -6 30 -32 57 -68 71 -74 104 -29 154 15 16
32 22 60 22 33 0 46 -7 83 -43z m2659 -235 c57 -61 67 -77 58 -90 -18 -28 -45
-14 -110 56 -63 68 -72 89 -51 110 15 15 23 9 103 -76z m-2459 14 c3 -7 -5
-67 -19 -132 -23 -117 -24 -119 -52 -122 l-28 -4 6 50 c5 46 4 51 -26 80 -30
28 -34 30 -57 17 -38 -21 -70 -19 -70 5 0 15 23 31 98 68 103 51 139 61 148
38z m2339 -117 c75 -44 105 -67 105 -80 0 -25 -33 -25 -75 1 l-31 19 -34 -23
c-32 -21 -34 -26 -31 -70 3 -47 2 -47 -26 -44 l-28 3 -12 115 c-7 63 -10 121
-8 128 8 22 34 13 140 -49z m-2187 -11 c3 -17 -95 -174 -115 -182 -6 -3 -19 1
-29 8 -16 12 -13 20 41 105 46 72 64 91 80 89 11 -2 21 -11 23 -20z m1946 -76
c13 -21 38 -67 56 -102 30 -59 31 -65 15 -76 -25 -18 -38 -9 -65 44 l-24 47
-6 -50 c-6 -60 -23 -67 -77 -34 l-36 23 23 -41 c25 -46 22 -73 -10 -73 -15 0
-30 21 -66 96 -25 53 -43 102 -40 110 9 23 41 16 89 -21 25 -19 51 -35 56 -35
7 0 11 24 11 59 0 33 3 66 6 75 11 28 43 18 68 -22z m-1837 16 c6 -7 18 -46
28 -85 9 -40 18 -73 20 -73 1 0 16 23 34 51 21 34 37 49 48 47 31 -6 25 -35
-23 -118 -42 -71 -50 -81 -73 -78 -23 3 -27 10 -42 75 -9 39 -19 78 -21 85 -3
7 -17 -7 -34 -34 -33 -55 -45 -62 -70 -43 -17 12 -15 18 39 99 56 84 75 99 94
74z m256 -100 c12 -6 49 -21 82 -33 51 -19 60 -26 60 -46 0 -25 -8 -27 -56
-14 -25 6 -27 3 -54 -70 -29 -80 -46 -98 -71 -73 -13 12 -11 24 16 87 16 41
30 77 30 80 0 4 -13 12 -30 18 -40 15 -41 52 -2 62 2 1 13 -4 25 -11z m1288
-37 c31 -32 36 -55 17 -96 -10 -22 -8 -28 10 -48 12 -13 22 -33 22 -45 0 -34
-37 -27 -75 14 -29 31 -37 35 -64 29 -34 -7 -37 -16 -20 -64 14 -39 -2 -66
-31 -51 -19 10 -73 186 -68 222 2 16 19 27 63 44 82 31 110 30 146 -5z m-281
-72 c0 -22 -6 -25 -72 -34 -39 -5 -48 -10 -48 -26 0 -13 6 -20 18 -18 36 3 43
-1 40 -23 -2 -15 -11 -24 -25 -26 -17 -3 -23 -10 -23 -28 0 -24 2 -25 63 -22
57 3 62 1 65 -18 3 -20 -3 -23 -80 -31 -56 -6 -87 -6 -95 1 -6 6 -14 58 -18
118 l-7 107 26 7 c43 11 130 20 144 16 6 -2 12 -13 12 -23z m-289 -10 c21 -11
26 -45 7 -52 -7 -2 -27 2 -45 10 -38 15 -73 5 -97 -29 -54 -77 40 -182 105
-117 17 17 19 23 8 30 -8 5 -21 6 -29 4 -8 -2 -22 0 -30 5 -28 18 2 45 52 48
76 5 97 -44 51 -115 -18 -27 -84 -47 -129 -39 -125 24 -139 209 -20 262 32 15
93 11 127 -7z m-367 -89 c5 -5 6 -16 2 -25 -4 -12 -15 -15 -48 -11 -24 2 -46
5 -50 5 -5 1 -8 9 -8 19 0 10 3 22 8 26 9 9 84 -2 96 -14z"/>
<path d="M3114 5406 c-3 -8 -3 -43 0 -78 2 -34 5 -69 5 -77 1 -19 277 -9 297
11 27 27 22 101 -11 133 -23 24 -29 25 -155 25 -103 0 -132 -3 -136 -14z"/>
<path d="M2440 5147 c0 -48 4 -87 8 -87 13 0 106 32 114 39 4 4 -21 36 -57 71
l-65 64 0 -87z"/>
<path d="M1757 4931 c-54 -55 -97 -105 -97 -111 0 -6 6 -17 13 -23 71 -67 109
-98 116 -95 10 4 148 165 169 195 32 51 -16 133 -78 133 -21 0 -48 -22 -123
-99z"/>
<path d="M3008 4709 c-31 -17 -38 -45 -48 -181 -12 -156 -30 -272 -71 -458
-35 -159 -126 -433 -179 -540 -59 -118 -64 -137 -52 -165 11 -24 34 -31 97
-28 11 1 182 2 380 3 198 1 380 5 404 8 60 9 70 28 44 83 -112 238 -198 470
-234 629 -31 136 -65 360 -78 500 -9 105 -12 117 -36 137 -23 20 -37 23 -118
23 -51 0 -100 -5 -109 -11z"/>
<path d="M2755 4625 c-183 -56 -299 -115 -445 -226 -256 -194 -432 -459 -505
-761 -67 -275 -53 -529 42 -793 53 -148 47 -141 92 -106 459 363 805 941 911
1518 15 81 50 359 50 398 0 11 -39 3 -145 -30z"/>
<path d="M3345 4638 c2 -13 9 -68 15 -123 48 -461 215 -885 500 -1270 37 -49
84 -110 105 -135 67 -78 237 -242 322 -313 l82 -67 15 27 c24 49 74 205 93
293 14 65 18 128 18 270 -1 169 -3 195 -29 300 -34 136 -69 228 -126 330 -45
80 -101 172 -110 180 -3 3 -23 28 -45 55 -177 222 -456 393 -748 460 -92 20
-98 20 -92 -7z"/>
<path d="M2640 3308 c-36 -13 -68 -46 -91 -94 -31 -61 -197 -279 -271 -354
-72 -75 -167 -160 -178 -160 -14 0 -130 -120 -130 -135 0 -18 26 -72 44 -91 6
-7 31 -37 56 -68 50 -62 176 -180 235 -220 21 -14 50 -26 65 -26 37 0 47 29
54 151 10 160 69 288 193 420 116 122 266 198 438 219 123 15 285 -14 400 -73
49 -24 180 -124 216 -163 104 -115 179 -297 179 -437 0 -145 37 -145 199 -1
127 114 241 256 241 301 0 24 -21 46 -120 125 -70 56 -242 225 -303 298 -20
25 -79 103 -129 173 -56 79 -102 133 -117 138 -33 13 -947 10 -981 -3z"/>
<path d="M2961 2854 c-184 -62 -351 -236 -390 -404 -19 -84 -13 -211 14 -297
34 -109 43 -118 133 -147 148 -46 238 -60 402 -60 189 -1 336 23 449 72 37 16
44 19 61 21 15 2 57 91 75 162 32 119 6 282 -62 398 -68 117 -222 228 -368
266 -93 24 -225 20 -314 -11z"/>
<path d="M1905 1860 c-3 -5 -1 -10 4 -10 6 0 11 5 11 10 0 6 -2 10 -4 10 -3 0
-8 -4 -11 -10z"/>
<path d="M4245 1790 c3 -5 8 -10 11 -10 2 0 4 5 4 10 0 6 -5 10 -11 10 -5 0
-7 -4 -4 -10z"/>
<path d="M3690 1566 c-39 -14 -54 -46 -22 -46 37 0 83 22 80 38 -4 21 -17 23
-58 8z"/>
</g>
</svg>
